<?xml version="1.0" standalone="no"?>
<!DOCTYPE svg PUBLIC "-//W3C//DTD SVG 1.1//EN" "http://www.w3.org/Graphics/SVG/1.1/DTD/svg11.dtd" >
<svg xmlns="http://www.w3.org/2000/svg">
  <metadata>Created by iconfont</metadata>
  <defs>
  <font id="nioiconfont" horiz-adv-x="1024">
    <font-face
      font-family="nioiconfont"
      font-weight="400"
      font-stretch="normal"
      units-per-em="1024"
      ascent="896"
      descent="-128"
    />
      <missing-glyph />
      
      <glyph glyph-name="icon_discover_28_focused" unicode="&#59137;" d="M851.602286 682.130286l6.582857-8.045715c146.578286-178.834286 134.326857-441.234286-30.354286-605.915428-158.610286-158.573714-408.32-176.091429-586.752-45.238857l-9.691428 7.314285-17.627429 14.043429 153.417143 153.380571a63.853714 63.853714 0 0 0 69.010286 14.628572 189.696 189.696 0 0 1 247.478857 247.478857 63.341714 63.341714 0 0 0 7.094857 59.977143l3.584 4.754286 3.949714 4.315428 153.307429 153.307429zM196.169143 699.830857C354.742857 858.404571 604.489143 875.885714 782.848 745.142857l9.764571-7.350857 17.627429-14.08-153.417143-153.417143c-18.285714-18.249143-45.568-24.210286-69.046857-14.628571a189.696 189.696 0 0 1-247.442286-247.442286c8.045714-19.675429 5.193143-42.130286-7.094857-59.977143l-3.584-4.754286-3.949714-4.315428-153.307429-153.307429-6.582857 8.045715C19.236571 272.749714 31.451429 535.149714 196.169143 699.830857z"  horiz-adv-x="1024" />
      
      <glyph glyph-name="icon_delete_28" unicode="&#59140;" d="M856.393143 560.749714V-27.428571a36.571429 36.571429 0 0 0-36.571429-36.571429H240.749714a36.571429 36.571429 0 0 0-36.571428 36.571429V560.749714a54.857143 54.857143 0 0 0 54.857143-54.857143V-9.142857h115.821714V560.749714a54.857143 54.857143 0 0 0 54.857143-54.857143V-9.142857h201.142857V505.892571a54.857143 54.857143 0 0 0 54.857143 54.857143V-9.142857h115.785143V505.892571a54.857143 54.857143 0 0 0 49.590857 54.601143l5.302857 0.256zM914.285714 694.857143A54.857143 54.857143 0 0 0 859.428571 640h-658.285714a54.857143 54.857143 0 0 0-54.601143 49.590857L146.285714 694.857143h768z m-310.857143 121.892571a54.857143 54.857143 0 0 0 54.601143-49.554285l0.256-5.302858h-256a54.857143 54.857143 0 0 0 54.857143 54.857143h146.285714z"  horiz-adv-x="1024" />
      
      <glyph glyph-name="icon_email_28" unicode="&#59142;" d="M923.428571 749.714286l3.730286-0.256a27.428571 27.428571 0 0 0 23.442286-23.442286L950.857143 722.285714v-676.571428l-0.256-3.730286a27.428571 27.428571 0 0 0-23.442286-23.442286L923.428571 18.285714H100.571429l-3.730286 0.256a27.428571 27.428571 0 0 0-23.442286 23.442286L73.142857 45.714286V722.285714l0.256 3.730286a27.428571 27.428571 0 0 0 23.442286 23.442286L100.571429 749.714286h822.857142zM914.285714 713.142857H109.714286v-658.285714h804.571428V713.142857z m-122.185143-81.188571a45.750857 45.750857 0 0 0 53.504-1.206857l0.292572-0.219429-333.933714-288.548571-333.312 287.963428 0.512 0.402286 4.022857 2.706286a45.714286 45.714286 0 0 0 49.554285-1.828572l4.022858-3.181714 275.2-237.714286 276.187428 238.555429z"  horiz-adv-x="1024" />
      
      <glyph glyph-name="icon_eye_16_open" unicode="&#59143;" d="M512 704c109.952 0 238.464-73.6 339.2-147.008l26.752-19.968 25.152-19.584 23.36-18.944 21.376-17.92 27.904-24.256 22.144-20.096 22.464-21.248 3.2-3.2-18.88-18.432-26.112-24-16.64-14.72-18.816-16.192-20.736-17.344-22.592-18.24-24.128-18.752-25.6-19.072-26.88-19.072-27.84-18.752c-89.792-58.688-192.896-108.672-283.328-108.672-149.248 0-282.176 79.68-375.104 155.904l-22.4 18.944-20.672 18.496-18.816 17.792-16.896 16.768-14.912 15.424-18.56 20.16-16.832 19.648L0 411.264l11.136 13.632 13.568 15.616 18.496 20.096 14.912 15.488 16.896 16.768 9.152 8.768 19.776 18.176C196.864 603.136 344.064 704 512 704z m0-64c-108.416 0-218.496-49.216-323.52-132.48-30.144-23.936-58.112-49.28-83.456-74.944l-20.416-21.312 1.92-2.048c24-25.664 50.752-51.392 79.744-75.968l22.208-18.24c104.96-83.328 215.04-132.48 323.52-132.48 78.656 0 184.832 50.048 300.352 134.208 31.68 23.04 62.4 47.488 91.328 72.128l26.048 22.72-16.192 14.144a1530.432 1530.432 0 0 1-120.064 93.824C684.864 595.712 586.112 640 512 640z m-0.064-68.736l12.672-0.512A159.808 159.808 0 0 0 672 411.52a160 160 0 1 0-160.064 159.808z m0.128-64l-8.96-0.448a96 96 0 1 1 8.96 0.448z"  horiz-adv-x="1024" />
      
      <glyph glyph-name="icon_eye_16_close" unicode="&#59144;" d="M728.128 780.544a64 64 0 0 0 15.744-89.088l-32.64-46.464c49.28-25.6 97.152-56.832 139.968-88l26.752-19.968 25.152-19.584 23.36-18.944 21.376-17.92 27.904-24.256 22.144-20.096 22.464-21.248 3.2-3.2-18.88-18.432-26.112-24-16.64-14.72-18.816-16.192-20.736-17.344-22.592-18.24-24.128-18.752-25.6-19.072-26.88-19.072-27.84-18.752c-89.792-58.688-192.896-108.672-283.328-108.672a467.52 467.52 0 0 0-150.912 26.112l-65.28-93.184a64 64 0 0 0-15.68 89.088l20.16 28.8c-62.272 29.248-117.696 67.584-163.392 105.088l-22.4 18.944-20.672 18.496-18.816 17.792-16.896 16.768-14.912 15.424-18.56 20.16-16.832 19.648L0 411.264l11.136 13.632 13.568 15.616 18.496 20.096 14.912 15.488 16.896 16.768 9.152 8.768 19.776 18.176C196.864 603.136 344.064 704 512 704c44.8 0 92.608-12.16 140.352-31.616l75.776 108.16z m-53.888-188.416l-48.064-68.736 7.552-8.192a160 160 0 0 0-187.904-249.6l-46.336-66.176A396.288 396.288 0 0 1 512 182.528c78.656 0 184.832 50.048 300.352 134.208 31.68 23.04 62.4 47.488 91.328 72.128l26.048 22.72-16.192 14.144a1530.432 1530.432 0 0 1-120.064 93.824 985.664 985.664 0 0 1-119.232 72.576zM512 640c-108.416 0-218.496-49.216-323.52-132.48-30.144-23.936-58.112-49.28-83.456-74.944l-20.416-21.312 1.92-2.048c24-25.664 50.752-51.392 79.744-75.968l22.208-18.24c48.768-38.72 98.688-70.08 148.992-92.544l56.576 80.832-3.328 3.584A160 160 0 0 0 512 571.264l12.672-0.512c16.832-1.28 33.28-5.248 48.64-11.648l41.472 59.328C576.96 632.512 542.4 640 512 640z m76.416-170.56L483.52 319.552a96 96 0 0 1 104.96 149.888z m-76.352 37.76l-8.96-0.384A96 96 0 0 1 432.256 357.76l102.656 146.752a95.808 95.808 0 0 1-22.848 2.752z"  horiz-adv-x="1024" />
      
      <glyph glyph-name="icon_fail_36" unicode="&#59146;" d="M512 839.111111c251.363556 0 455.111111-203.747556 455.111111-455.111111s-203.747556-455.111111-455.111111-455.111111S56.888889 132.636444 56.888889 384 260.636444 839.111111 512 839.111111z m0-42.666667C284.216889 796.444444 99.555556 611.783111 99.555556 384S284.216889-28.444444 512-28.444444 924.444444 156.216889 924.444444 384 739.783111 796.444444 512 796.444444zM512 241.777778a28.444444 28.444444 0 1 0 0-56.888889 28.444444 28.444444 0 0 0 0 56.888889z m0 312.888889a49.806222 49.806222 0 0 0 49.749333-52.337778l-0.369777-4.039111-27.136-203.377778a28.444444 28.444444 0 0 0-24.945778-24.519111l-3.242667-0.170667h-13.027555l-30.407112 228.067556A49.806222 49.806222 0 0 0 512 554.666667z"  horiz-adv-x="1024" />
      
      <glyph glyph-name="icon_im_16" unicode="&#59149;" d="M896 832a64 64 0 0 0 64-64v-639.488a64 64 0 0 0-64-64h-154.88a64 64 0 0 1-33.28-9.28L512-64l-196.992 119.04a64 64 0 0 1-33.408 9.344L128 64l-7.488 0.448A64 64 0 0 0 64 128V768a64 64 0 0 0 64 64z m0-64H128v-640l153.92 0.448 11.712-0.512c19.456-1.792 38.272-8 55.04-18.176L512 10.88l162.56 98.944a128 128 0 0 0 66.56 18.624H896V768zM352 448a32 32 0 0 0 0-64h-64a32 32 0 0 0 0 64h64z m192 0a32 32 0 0 0 0-64h-64a32 32 0 0 0 0 64h64z m192 0a32 32 0 1 0 0-64h-64a32 32 0 1 0 0 64h64z"  horiz-adv-x="1024" />
      
      <glyph glyph-name="icon_like_16_focused" unicode="&#59152;" d="M471.424 790.272l38.208-30.592c17.472-14.08 29.44-34.112 33.728-56.448a85.76 85.76 0 0 0-13.056-63.808L459.712 539.904l437.44-0.064c3.776 0 7.552-0.384 12.48-1.408l5.312-1.28 8.384-2.944c28.928-12.928 44.928-45.376 37.632-77.184l-102.784-446.08a67.84 67.84 0 0 0-66.112-52.672H291.84a67.84 67.84 0 0 0-67.84 67.84V534.4c0 19.2 8 37.568 22.08 50.368l225.28 205.504zM128 544v-512l-7.488 0.448A64 64 0 0 0 64 96v384a64 64 0 0 0 64 64z"  horiz-adv-x="1024" />
      
      <glyph glyph-name="icon_like_16_normal" unicode="&#59153;" d="M528.128 831.808l58.304-45.376a121.6 121.6 0 0 0 44.672-72.768c5.76-29.568-0.64-60.16-17.856-84.928l-36.608-52.672L911.168 576a96 96 0 0 0 14.72-1.152l7.296-1.408a96 96 0 0 0 71.488-115.456l-103.68-440.64a64 64 0 0 0-62.336-49.344H320a64 64 0 0 0-64 64V547.2a96 96 0 0 0 32.32 71.808l239.808 212.8zM160 544v-512l-7.488 0.448A64 64 0 0 0 96 96v384a64 64 0 0 0 64 64z m370.816 204.672L330.752 571.136A32 32 0 0 1 320 547.2v-515.136h518.656l103.68 440.576a32 32 0 0 1-18.304 36.672l-5.504 1.856A32 32 0 0 1 911.168 512H454.4L560.64 665.216a47.616 47.616 0 0 1 7.616 36.288 57.6 57.6 0 0 1-21.12 34.432l-16.384 12.736z"  horiz-adv-x="1088" />
      
      <glyph glyph-name="icon_messenger_28_normal" unicode="&#59156;" d="M512 822.857143c241.005714 0 438.857143-183.113143 438.857143-409.892572 0-226.816-197.851429-409.892571-438.857143-409.892571-40.777143 0-79.36 7.131429-116.443429 17.261714l-13.824 3.913143L219.428571-54.857143v164.864c-88.868571 74.752-146.285714 182.125714-146.285714 302.957714C73.142857 639.744 270.994286 822.857143 512 822.857143z m0-54.857143c-212.187429 0-384-160.036571-384-355.035429 0-96.109714 42.861714-186.148571 117.613714-253.074285l9.142857-7.936 19.529143-16.457143v-102.546286l102.509715 49.92 20.406857-5.997714c43.008-12.653714 79.213714-18.944 114.797714-18.944 212.187429 0 384 160.036571 384 355.035428S724.187429 768 512 768z m259.437714-242.505143l-218.294857-230.619428-105.142857 110.262857-197.705143-106.898286 220.562286 227.218286 107.410286-105.837715 193.170285 105.874286z"  horiz-adv-x="1024" />
      
      <glyph glyph-name="icon_mine_28_focused" unicode="&#59157;" d="M841.142857 0l-0.256-5.266286a54.857143 54.857143 0 0 0-49.334857-49.371428L786.285714-54.857143h-548.571428a54.857143 54.857143 0 0 0-54.601143 49.590857L182.857143 0h658.285714zM512 850.285714l10.459429-0.146285C734.756571 844.580571 905.142857 670.756571 905.142857 457.142857c0-217.124571-176.018286-393.142857-393.142857-393.142857S118.857143 240.018286 118.857143 457.142857c0 213.613714 170.386286 387.437714 382.683428 392.996572L512 850.285714zM365.714286 548.571429a36.571429 36.571429 0 0 1-36.315429-32.292572L329.142857 512v-73.142857a36.571429 36.571429 0 0 1 72.886857-4.278857L402.285714 438.857143v73.142857a36.571429 36.571429 0 0 1-36.571428 36.571429z m292.571428 0a36.571429 36.571429 0 0 1-36.315428-32.292572L621.714286 512v-73.142857a36.571429 36.571429 0 0 1 72.886857-4.278857L694.857143 438.857143v73.142857a36.571429 36.571429 0 0 1-36.571429 36.571429z"  horiz-adv-x="1024" />
      
      <glyph glyph-name="icon_mine_28_normal" unicode="&#59160;" d="M841.142857 0l-0.256-5.266286A54.857143 54.857143 0 0 0 786.285714-54.857143h-548.571428A54.857143 54.857143 0 0 0 182.857143 0h658.285714zM512 850.285714l10.459429-0.146285C734.756571 844.580571 905.142857 670.756571 905.142857 457.142857c0-217.124571-176.018286-393.142857-393.142857-393.142857S118.857143 240.018286 118.857143 457.142857c0 213.613714 170.386286 387.437714 382.683428 392.996572L512 850.285714z m0-54.857143l-9.801143-0.146285a338.285714 338.285714 0 1 1 19.602286 0L512 795.428571z"  horiz-adv-x="1024" />
      
      <glyph glyph-name="a-icon_logo_s2" unicode="&#59163;" d="M704.9728 345.4976c40.192-0.1536 41.1648-2.816 76.5952-39.1424l189.184-193.9456A520.2688 520.2688 0 0 0 778.9568-102.4l-89.3952 91.648-12.7488 13.056-115.7632 118.7072c-19.84 20.352-28.6464 28.2112-39.3984 31.5904a30.1824 30.1824 0 0 1-9.6512 1.8176c-3.4304 0-6.2208-0.7424-9.6768-1.8176-10.752-3.3792-19.5328-11.264-39.3728-31.5904l-115.7888-118.7072-12.7232-13.056L244.992-102.4a520.3712 520.3712 0 0 0-191.7696 214.8096l83.4048 85.504 12.544 12.8512 93.2096 95.5904c35.456 36.352 36.4288 38.9888 76.6208 39.168zM512 870.4c125.5168 0 249.7024-47.4112 346.112-138.112 102.3488-96.256 165.888-235.1104 165.888-386.7904h-195.8656c-45.4656 0-60.0832 3.6352-73.984 19.0208-14.2592 15.7952-12.288 29.184-26.2656 66.3808a237.824 237.824 0 0 1-57.2672 87.3472A228.352 228.352 0 0 1 512 582.7328a228.352 228.352 0 0 1-158.6176-64.4864 237.7984 237.7984 0 0 1-57.2672-87.3472c-14.0032-37.1968-12.0064-50.5856-26.2912-66.3808-13.8752-15.3856-28.5184-19.0208-73.984-19.0208H0c0 151.68 63.5392 290.56 165.8624 386.816C262.2976 822.9632 386.4832 870.3488 512 870.4z"  horiz-adv-x="1024" />
      
      <glyph glyph-name="icon_navigation_28" unicode="&#59166;" d="M876.032 767.926857a18.285714 18.285714 0 0 0 19.382857-22.930286l-227.474286-709.778285-1.499428-4.754286c-14.774857-39.497143-71.68-41.435429-87.917714-0.877714l-126.537143 287.597714-5.595429 5.595429-288.987428 126.390857-4.608 2.121143c-35.218286 18.285714-32.694857 71.789714 5.741714 85.942857l4.644571 1.462857 709.997715 228.717714z m-23.625143-43.52L172.288 503.222857l-2.413714-0.987428c-7.314286-4.059429-7.277714-15.798857 1.426285-19.273143l300.397715-130.925715 2.450285-1.243428c3.218286-1.974857 5.851429-5.083429 7.350858-8.777143l130.816-298.459429 1.316571-2.450285a10.605714 10.605714 0 0 1 18.944 3.328l219.830857 679.936zM868.315429 766.171429l25.856-25.856-284.452572-284.489143a36.571429 36.571429 0 0 0-51.748571 0l310.345143 310.345143z"  horiz-adv-x="1024" />
      
      <glyph glyph-name="icon_nio_26" unicode="&#59168;" d="M748.307692 659.692308a275.692308 275.692308 0 0 0 0-551.384616H275.692308A275.692308 275.692308 0 0 0 275.692308 659.692308h472.615384z m0-39.384616H275.692308a236.307692 236.307692 0 0 1-8.861539-472.457846L275.692308 147.692308h472.615384a236.307692 236.307692 0 0 1 8.861539 472.457846L748.307692 620.307692z m-3.899077-98.461538c78.769231 0 142.848-63.291077 142.848-141.115077 0-77.824-64.078769-141.154462-142.848-141.154462-78.769231 0-142.848 63.330462-142.848 141.154462S665.6 521.846154 744.369231 521.846154z m-183.532307-6.931692v-267.539693h-66.875077V492.307692c0 3.938462 0.078769 6.695385 0.984615 9.688616a17.841231 17.841231 0 0 0 11.972923 12.012307 23.394462 23.394462 0 0 0 6.104616 0.905847l3.584 0.039384h44.228923z m-344.733539 0c6.301538 0 11.264-0.157538 16.659693-2.599385 4.017231-1.811692 6.971077-4.332308 9.924923-7.483077l2.99323-3.308308 132.411077-150.96123v141.705846c0 3.938462 0.039385 6.695385 0.984616 9.688615A17.841231 17.841231 0 0 0 391.089231 513.969231a23.394462 23.394462 0 0 0 6.104615 0.905846l3.544616 0.039385h44.425846v-267.539693h-48.758154c-6.301538 0-11.264 0.196923-16.659692 2.599385-5.356308 2.441846-8.782769 6.104615-12.918154 10.791384l-66.205539 75.500308-66.205538 75.500308v-141.784616c0-3.859692-0.039385-6.656-0.984616-9.64923a17.880615 17.880615 0 0 0-11.972923-11.972923 23.394462 23.394462 0 0 0-6.104615-0.945231H167.384615V514.875077h48.758154z m528.580923-60.258462a74.043077 74.043077 0 0 1-73.924923-73.964308 74.043077 74.043077 0 0 1 73.924923-73.924923 74.043077 74.043077 0 0 1 73.924923 73.924923 74.043077 74.043077 0 0 1-73.924923 73.924923z"  horiz-adv-x="1024" />
      
      <glyph glyph-name="icon_nioes8_white" unicode="&#59170;" d="M1090.493217 650.306783c148.880696 0 269.979826-119.652174 269.979826-266.707479 0-147.077565-121.09913-266.729739-269.979826-266.729739-148.858435 0-269.979826 119.652174-269.979826 266.729739 0 147.055304 121.121391 266.685217 269.979826 266.685218zM1810.587826 651.130435c59.792696 0 110.592-8.614957 150.950957-25.6 70.233043-28.582957 98.882783-74.195478 98.882782-157.384348 0-21.74887-3.027478-50.643478-9.015652-85.882435l-2.381913-14.046609H1582.569739c2.782609-103.357217 31.877565-161.124174 93.273044-186.278956 33.057391-13.979826 80.584348-21.036522 141.490087-21.036522 75.063652 0 142.714435 11.642435 201.126956 34.615652l15.827478 6.233044 15.582609-40.492522-15.872-6.010435c-16.406261-6.233043-33.124174-11.865043-51.088696-17.252174-12.621913-4.006957-32.745739-8.013913-67.072-13.356521-29.384348-4.674783-62.063304-6.945391-99.84-6.945392-65.068522 0-116.446609 7.212522-152.709565 21.414957-86.305391 33.613913-124.816696 109.278609-124.816695 245.314783 0 132.006957 42.985739 215.04 127.777391 246.739478 36.062609 13.423304 83.277913 19.968 144.339478 19.968z m555.631304 0c58.10087 0 125.773913-10.662957 201.015653-31.677218l16.695652-4.674782-12.599652-40.982261-15.805218 4.340869c-71.791304 19.767652-135.724522 29.785043-189.974261 29.785044-58.479304 0-99.951304-4.563478-126.797913-13.913044-37.888-13.200696-55.518609-38.822957-55.518608-80.628869 0-67.917913 24.620522-79.671652 43.141565-82.587826l290.237217-43.853913c57.566609-8.815304 83.233391-44.989217 83.233392-117.314783 0-88.976696-46.925913-121.811478-86.283131-133.654261-39.958261-12.132174-89.755826-18.276174-148.034783-18.276174a713.46087 713.46087 0 0 0-87.106782 5.520696c-28.40487 3.561739-49.330087 6.967652-64 10.462609l-78.758957 20.591304 17.541566 40.893217 72.192-19.300173c12.710957-3.183304 32.723478-6.455652 59.124869-9.683479a680.96 680.96 0 0 1 83.033044-5.275826c52.49113 0 97.391304 5.654261 133.453913 16.806957 16.762435 5.38713 24.82087 9.572174 36.418782 22.260869l0.512 0.556522c8.548174 8.525913 18.69913 27.91513 18.699131 71.791304 0 53.648696-16.406261 66.960696-44.744348 71.813566l-290.682435 43.853913c-37.042087 5.609739-81.207652 32.144696-81.207652 126.753391 0 58.924522 28.649739 100.151652 82.854956 119.229217 31.699478 11.53113 78.647652 17.16313 143.36 17.163131z m551.513044 0c61.529043 0 107.809391-5.12 141.423304-15.627131 72.125217-21.615304 82.075826-75.375304 82.075826-130.226087 0-54.02713-10.618435-90.267826-32.367304-110.035478 28.048696-20.569043 46.547478-67.227826 46.547478-121.566609 0-72.570435-29.273043-119.518609-86.973217-139.53113-32.834783-10.930087-83.478261-16.450783-150.706087-16.450783-67.227826 0-117.893565 5.520696-150.528 16.384-57.878261 20.079304-87.151304 67.005217-87.151304 139.575653 0 55.607652 17.229913 99.506087 46.792347 121.09913-21.926957 18.765913-32.612174 54.717217-32.612174 109.167304 0 75.063652 23.752348 113.174261 82.009044 131.561739 33.680696 10.529391 79.961043 15.649391 141.490087 15.649392z m-2174.107826-13.913044v-505.633391H617.293913V594.432c0 7.41287 0.111304 12.644174 1.825391 18.298435 1.625043 5.38713 4.541217 10.173217 8.525913 14.157913 3.962435 4.006957 8.770783 6.90087 14.135653 8.525913 5.676522 1.714087 10.907826 1.80313 18.298434 1.80313h83.567305z m-651.464348 0c11.842783 0 21.303652-0.333913 31.432348-4.941913 10.150957-4.585739 16.65113-11.464348 24.464695-20.368695L398.246957 326.566957V594.432c0 7.41287 0.111304 12.644174 1.825391 18.298435 1.625043 5.38713 4.541217 10.173217 8.525913 14.157913 3.984696 4.006957 8.770783 6.90087 14.157913 8.525913 5.654261 1.714087 10.907826 1.80313 18.298435 1.80313h83.878956v-505.633391h-92.16c-11.842783 0-21.303652 0.356174-31.454608 4.941913-10.128696 4.608-16.62887 11.486609-24.442435 20.390957L126.686609 442.256696v-267.865044c0-7.41287-0.111304-12.644174-1.825392-18.298435a33.814261 33.814261 0 0 0-8.503652-14.157913c-4.006957-4.006957-8.793043-6.90087-14.157913-8.525913-5.676522-1.714087-10.907826-1.825391-18.320695-1.825391H0V637.217391z m2940.349217-264.948869h-228.88626c-19.366957 0-33.52487-2.29287-42.073044-6.834087-24.687304-12.065391-36.953043-43.76487-36.953043-94.45287 0-50.554435 13.178435-69.587478 34.437565-83.923478 28.115478-19.322435 68.897391-26.156522 156.004174-26.156522 47.749565 0 83.767652 1.958957 107.074782 5.810087 21.904696 4.274087 39.312696 10.774261 53.203479 19.812174 23.81913 16.094609 35.528348 44.210087 35.528347 85.793391 0 51.578435-12.198957 82.098087-37.264695 93.317566-9.772522 4.318609-23.974957 6.633739-41.071305 6.633739z m-1941.414956 151.017739a139.865043 139.865043 0 0 1-139.709218-139.731478 139.865043 139.865043 0 0 1 139.709218-139.709218 139.865043 139.865043 0 0 1 139.709217 139.709218 139.865043 139.865043 0 0 1-139.709217 139.731478z m721.519304 84.635826c-56.453565 0-100.841739-5.787826-131.917913-17.185391-62.642087-23.218087-94.809043-81.942261-98.05913-179.311305h430.502956c2.738087 17.964522 4.073739 36.418783 4.073739 56.030609 0 65.714087-18.365217 95.721739-72.793043 118.850783-32.946087 14.58087-75.998609 21.593043-131.806609 21.593043z m1105.118609 0c-67.784348 0-115.021913-5.654261-140.421565-16.806957-24.086261-9.839304-39.869217-28.805565-39.869218-89.889391 0-43.074783 8.281043-70.121739 23.930435-78.180174 6.811826-3.405913 20.457739-7.568696 45.634783-7.568695h216.064c29.540174 0 43.230609 3.539478 49.530434 6.500173 20.969739 10.173217 25.421913 49.819826 25.421914 81.274435 0 59.280696-15.805217 77.935304-39.513044 87.707826-25.778087 11.308522-73.015652 16.962783-140.777739 16.962783z"  horiz-adv-x="3161" />
      
      <glyph glyph-name="icon_nioet7_white" unicode="&#59171;" d="M3092.346435 649.349565l-0.267131-41.984L2788.307478 116.869565h-59.770435l300.299131 482.059131H2703.137391V649.349565h389.209044z m-496.172522-2.070261v-47.638261h-196.630261V116.869565h-51.867826V599.641043h-196.652522v47.638261h445.150609z m-777.416348 1.513739c61.796174 0 110.391652-8.169739 152.954435-25.689043 69.654261-28.338087 98.05913-74.373565 98.05913-158.898087 0-40.603826-6.210783-64.512-12.198956-87.596522l-2.671304-10.351304H1598.018783c1.224348-99.995826 28.91687-156.048696 89.266087-181.426087 20.190609-9.082435 56.854261-21.103304 144.050087-21.103304 104.96 0 162.905043 17.074087 205.734956 33.769739l7.012174 2.738087 13.423304-42.340174-6.388869-2.29287c-42.295652-15.204174-106.184348-38.15513-225.369044-38.15513-66.092522 0-116.535652 7.012174-154.201043 21.437217-86.060522 32.790261-126.152348 111.059478-126.152348 246.338783 0 133.342609 41.20487 210.966261 129.691826 244.246261 46.458435 16.829217 109.968696 19.322435 143.671652 19.322434zM1101.779478 651.130435c148.902957 0 270.024348-119.652174 270.024348-266.752 0-147.077565-121.121391-266.752-270.024348-266.752-148.880696 0-270.024348 119.674435-270.024348 266.752 0 147.099826 121.143652 266.752 270.024348 266.752z m-346.913391-13.067131v-505.700174h-126.374957V595.255652c0 7.41287 0.111304 12.644174 1.825392 18.320696 1.625043 5.342609 4.541217 10.173217 8.525913 14.157913 3.962435 3.984696 8.770783 6.878609 14.157913 8.503652 5.654261 1.714087 10.907826 1.825391 18.298435 1.825391h83.567304z m-651.575652 0c11.842783 0 21.303652-0.333913 31.454608-4.941913 10.150957-4.608 16.65113-11.486609 24.464696-20.390956l250.256696-285.384348V595.255652c0 7.41287 0.111304 12.644174 1.825391 18.320696 1.625043 5.342609 4.518957 10.173217 8.503652 14.135652 4.006957 4.006957 8.793043 6.90087 14.157913 8.525913 5.676522 1.714087 10.907826 1.825391 18.320696 1.825391h83.878956v-505.700174h-92.16c-11.842783 0-21.303652 0.333913-31.454608 4.919653-10.150957 4.608-16.65113 11.486609-24.442435 20.390956L137.839304 443.058087v-267.909565c0-7.390609-0.111304-12.621913-1.825391-18.298435a33.836522 33.836522 0 0 0-8.525913-14.157913c-3.984696-4.006957-8.793043-6.90087-14.157913-8.503652-5.676522-1.714087-10.907826-1.825391-18.298435-1.825392H11.130435V638.063304z m999.067826-113.975652a139.887304 139.887304 0 0 1-139.709218-139.731478 139.887304 139.887304 0 0 1 139.731479-139.731478 139.887304 139.887304 0 0 1 139.731478 139.731478 139.887304 139.887304 0 0 1-139.731478 139.731478z m719.916522 81.207652c-55.140174 0-98.749217-5.721043-129.669566-17.029565-61.751652-22.973217-93.785043-83.745391-95.276521-180.602435h418.927304c3.673043 21.147826 5.832348 43.698087 5.832348 61.44 0 70.322087-27.269565 96.166957-71.234783 115.110957-34.949565 14.981565-72.192 21.081043-128.601043 21.081043z"  horiz-adv-x="3116" />
      
      <glyph glyph-name="icon_navigation_16" unicode="&#59172;" d="M919.68 830.912a32 32 0 0 0 39.232-39.168l-248.32-809.792c-15.424-57.472-95.104-62.336-117.248-7.104L476.16 346.816l-373.12 117.056c-52.928 20.992-50.944 95.04-0.32 115.008l7.232 2.368z m-97.664-94.976L132.352 521.088l380.224-120a32 32 0 0 0 15.552-13.12l2.304-4.672 119.936-378.624 210.496 679.616-178.368-178.432a64 64 0 0 0-84.48-5.312l-6.016 5.312 230.016 230.08z"  horiz-adv-x="1024" />
      
      <glyph glyph-name="icon_reserve_16" unicode="&#59178;" d="M516.288 845.312c255.808 0 463.808-208 463.808-463.808 0-245.056-191.36-447.168-433.664-462.784l-15.552-0.768-14.72-0.256-14.528 0.256C252.032-74.24 52.48 131.264 52.48 381.504 52.48 637.312 260.544 845.312 516.288 845.312z m0-65.6l-13.632-0.256A398.656 398.656 0 0 1 118.208 381.44c0-219.52 178.56-398.08 398.08-398.08 219.52 0 398.144 178.56 398.144 398.08A398.72 398.72 0 0 1 544.64 778.688l-14.464 0.768-13.824 0.256zM503.296 658.56c18.88 0 34.752-11.584 37.76-27.072l0.512-5.248v-255.36a27.776 27.776 0 0 0-1.088-7.616l180.096-135.68a33.92 33.92 0 0 0 10.688-42.048l-3.136-5.248-16.896-17.92-232 173.952-0.64 4.48 0.448 0.704-2.88 0.256v313.6l3.2 3.2h23.936z"  horiz-adv-x="1024" />
      
      <glyph glyph-name="icon_reserve_28" unicode="&#59179;" d="M530.285714 822.857143c242.358857 0 438.857143-196.498286 438.857143-438.857143s-196.498286-438.857143-438.857143-438.857143-438.857143 196.498286-438.857143 438.857143 196.498286 438.857143 438.857143 438.857143z m0-36.571429c-222.171429 0-402.285714-180.114286-402.285714-402.285714s180.114286-402.285714 402.285714-402.285714 402.285714 180.114286 402.285715 402.285714-180.114286 402.285714-402.285715 402.285714z m-53.833143-149.394285a36.571429 36.571429 0 0 0 36.571429-36.571429v-222.939429l157.366857-157.330285a36.571429 36.571429 0 0 0 3.035429-48.274286l-3.035429-3.437714-194.048 194.011428 0.182857 0.146286h-0.073143V636.891429z"  horiz-adv-x="1060" />
      
      <glyph glyph-name="icon_rotate_28" unicode="&#59181;" d="M768 512a36.571429 36.571429 0 0 0 36.571429-36.571429v-475.428571a36.571429 36.571429 0 0 0-36.571429-36.571429H146.285714a36.571429 36.571429 0 0 0-36.571428 36.571429v475.428571a36.571429 36.571429 0 0 0 36.571428 36.571429z m0-36.534857H146.285714v-475.428572h621.714286v475.428572zM568.502857 838.948571a36.571429 36.571429 0 0 0 0-51.712L521.910857 740.571429c96.768-1.024 181.577143-23.259429 254.134857-66.779429 79.872-47.981714 138.569143-117.467429 175.689143-207.945143a14.555429 14.555429 0 0 0-8.411428-18.944l-20.370286-7.68c-33.901714 89.6-89.014857 157.147429-165.741714 203.190857-66.852571 40.118857-145.481143 60.708571-236.251429 61.586286l46.738286-46.811429a36.571429 36.571429 0 0 0 3.035428-48.274285l-3.035428-3.437715L477.257143 695.954286a36.571429 36.571429 0 0 0 0 51.712l91.245714 91.282285z"  horiz-adv-x="1060" />
      
      <glyph glyph-name="icon_setting_28" unicode="&#59183;" d="M719.286857 786.285714a36.571429 36.571429 0 0 0 29.44-14.848l2.340572-3.657143 207.798857-365.714285a36.571429 36.571429 0 0 0 2.084571-31.817143l-2.084571-4.315429-207.798857-365.714285a36.571429 36.571429 0 0 0-27.428572-18.249143l-4.388571-0.256H304.749714a36.571429 36.571429 0 0 0-29.44 14.848l-2.340571 3.657143-207.798857 365.714285a36.571429 36.571429 0 0 0-2.084572 31.817143l2.084572 4.315429 207.798857 365.714285a36.571429 36.571429 0 0 0 27.428571 18.249143L304.749714 786.285714h414.537143z m-10.642286-54.857143H315.318857L117.942857 384l197.412572-347.428571h393.252571l197.412571 347.428571-197.376 347.428571zM512 557.714286c95.817143 0 173.714286-77.897143 173.714286-173.714286s-77.897143-173.714286-173.714286-173.714286S338.285714 288.182857 338.285714 384 416.182857 557.714286 512 557.714286z m0-54.857143A119.003429 119.003429 0 0 1 393.142857 384 119.04 119.04 0 0 1 512 265.142857 119.04 119.04 0 0 1 630.857143 384 119.003429 119.003429 0 0 1 512 502.857143z"  horiz-adv-x="1024" />
      
      <glyph glyph-name="icon_share_28" unicode="&#59184;" d="M310.857143 640a54.857143 54.857143 0 0 0-49.590857-54.601143L256 585.142857H164.571429v-585.142857h694.857142v585.142857H768a54.857143 54.857143 0 0 0-54.637714 49.590857L713.106286 640H877.714286a36.571429 36.571429 0 0 0 36.571428-36.571429v-621.714285a36.571429 36.571429 0 0 0-36.571428-36.571429H146.285714a36.571429 36.571429 0 0 0-36.571428 36.571429V603.428571a36.571429 36.571429 0 0 0 36.571428 36.571429h164.571429zM512 822.710857l196.388571-111.286857a54.857143 54.857143 0 0 0-70.034285-23.076571l-4.754286 2.377142-96.036571 54.491429L537.6 354.742857a51.2 51.2 0 0 0-46.262857-50.980571l-4.937143-0.219429V745.216l-96-54.491429a54.857143 54.857143 0 0 0-74.788571 20.662858L512 822.710857z"  horiz-adv-x="1024" />
      
      <glyph glyph-name="icon_shield_36" unicode="&#59185;" d="M508.643556 815.104l347.960888-111.018667-6.968888-386.673777-0.853334-3.413334c-26.083556-106.552889-82.375111-195.612444-159.516444-268.288a653.738667 653.738667 0 0 0-126.122667-92.871111l-12.344889-6.826667-11.207111-5.859555-9.955555-4.892445-4.437334-2.104888-7.879111-3.470223-17.493333-7.054222-13.169778 7.594667c-59.136 34.133333-109.937778 72.618667-152.945778 114.631111-64 62.577778-107.918222 129.877333-135.338666 197.432889-16.696889 41.187556-24.177778 73.813333-26.254223 96.284444L167.537778 704l341.105778 111.132444zM508.728889 782.222222L199.111111 681.358222l4.266667-342.385778 1.024-7.111111 2.275555-12.032 1.848889-7.964444 3.271111-12.515556 3.128889-10.666666 2.503111-7.68 4.295111-12.373334 5.12-13.255111 3.868445-9.301333 4.266667-9.671111 4.636444-9.984 5.12-10.296889 5.518222-10.581333 2.929778-5.404445 6.257778-10.922667 6.741333-11.207111 7.253333-11.377777c2.503111-3.84 5.091556-7.68 7.765334-11.576889l8.334222-11.719111 4.380444-5.944889 9.159112-11.946667c1.592889-1.991111 3.185778-3.982222 4.835555-5.973333l10.069333-12.088889c43.264-50.517333 102.741333-102.940444 184.32-150.044445l11.548445 5.12 11.662222 5.688889 10.979556 5.745778 8.248889 4.494222 13.653333 7.850667 9.841778 5.973333 10.353777 6.542222 5.376 3.498667 11.036445 7.452445 11.406222 8.078222 5.831111 4.266666 11.861334 9.016889c5.973333 4.636444 12.060444 9.557333 18.176 14.705778l12.288 10.609778c65.792 58.339556 134.371556 144.782222 163.84 265.102222L824.888889 681.358222 508.728889 782.222222z m123.335111-312.888889c7.68 0 14.791111-3.128889 19.911111-8.248889l-40.106667-40.391111-125.44-126.293333-76.231111 76.515556L369.777778 411.306667c5.432889 5.12 12.259556 8.248889 20.195555 8.248889 7.111111 0 13.681778-2.56 18.773334-7.111112l2.56-2.56 75.121777-75.093333 125.44 126.293333c5.12 5.12 12.487111 8.248889 20.195556 8.248889z"  horiz-adv-x="1024" />
      
      <glyph glyph-name="icon_stars_36_focused" unicode="&#59186;" d="M512 121.827556l-201.671111-105.813334a28.444444 28.444444 0 0 0-41.244445 30.008889l38.485334 224-163.015111 158.577778a28.444444 28.444444 0 0 0 15.729777 48.554667l225.365334 32.682666 100.864 203.889778a28.444444 28.444444 0 0 0 50.972444 0l100.864-203.889778 225.365334-32.711111a28.444444 28.444444 0 0 0 15.729777-48.526222l-163.015111-158.577778 38.485334-224a28.444444 28.444444 0 0 0-41.244445-30.008889L512 121.827556z"  horiz-adv-x="1024" />
      
      <glyph glyph-name="icon_surprised_28_normal" unicode="&#59188;" d="M512 822.857143a219.428571 219.428571 0 0 0 218.697143-201.142857h109.312a18.285714 18.285714 0 0 0 17.700571-13.677715l0.512-3.072 54.381715-640a18.285714 18.285714 0 0 0-14.921143-19.529142l-3.291429-0.292572-766.317714 0.073143a18.285714 18.285714 0 0 0-16.676572 16.457143v3.291428l54.345143 640a18.285714 18.285714 0 0 0 15.140572 16.457143L183.954286 621.714286h109.348571A219.428571 219.428571 0 0 0 512 822.857143z m294.4-256H217.526857L169.398857 0h685.165714L806.4 566.857143z m-468.114286-109.714286a27.428571 27.428571 0 0 0 27.428572-27.428571v-128a27.428571 27.428571 0 1 0-54.857143 0v128a27.428571 27.428571 0 0 0 27.428571 27.428571z m347.428572 0a27.428571 27.428571 0 0 0 27.428571-27.428571v-128a27.428571 27.428571 0 1 0-54.857143 0v128a27.428571 27.428571 0 0 0 27.428572 27.428571zM512 768a164.608 164.608 0 0 1-162.998857-141.604571l-0.548572-4.681143h327.058286l-0.512 4.681143a164.608 164.608 0 0 1-155.245714 141.421714L512 768z"  horiz-adv-x="1024" />
      
      <glyph glyph-name="icon_surprised_28_focused" unicode="&#59190;" d="M512 822.857143a219.428571 219.428571 0 0 0 218.697143-201.142857h109.312a18.285714 18.285714 0 0 0 17.700571-13.677715l0.512-3.072 54.381715-640a18.285714 18.285714 0 0 0-14.921143-19.529142l-3.291429-0.292572-766.317714 0.073143a18.285714 18.285714 0 0 0-16.676572 16.457143v3.291428l54.345143 640a18.285714 18.285714 0 0 0 15.140572 16.457143L183.954286 621.714286h109.348571A219.428571 219.428571 0 0 0 512 822.857143z m201.142857-365.714286h-402.285714a54.857143 54.857143 0 0 1 49.590857-54.601143L365.714286 402.285714h292.571428a54.857143 54.857143 0 0 1 54.857143 54.857143zM512 768a164.608 164.608 0 0 1-162.998857-141.604571l-0.548572-4.681143h327.058286l-0.512 4.681143a164.608 164.608 0 0 1-155.245714 141.421714L512 768z"  horiz-adv-x="1024" />
      
      <glyph glyph-name="icon_vipps_28" unicode="&#59193;" d="M289.572571 400.384c81.810286-112.310857 166.144-161.353143 255.780572-154.843429 94.281143 6.875429 162.816 46.006857 210.907428 119.515429a58.514286 58.514286 0 1 0 97.938286-64.036571c-68.388571-104.594286-170.24-162.706286-300.324571-172.178286-134.692571-9.837714-255.268571 60.306286-358.912 202.678857a58.514286 58.514286 0 0 0 94.610285 68.864zM645.485714 640a82.285714 82.285714 0 1 0 0-164.571429 82.285714 82.285714 0 0 0 0 164.571429z"  horiz-adv-x="1024" />
      
      <glyph glyph-name="icon_success_36" unicode="&#59196;" d="M512 839.111111c251.363556 0 455.111111-203.747556 455.111111-455.111111s-203.747556-455.111111-455.111111-455.111111S56.888889 132.636444 56.888889 384 260.636444 839.111111 512 839.111111z m0-42.666667C284.216889 796.444444 99.555556 611.783111 99.555556 384S284.216889-28.444444 512-28.444444 924.444444 156.216889 924.444444 384 739.783111 796.444444 512 796.444444z m283.648-254.350222l0.398222-0.398222 0.398222-0.426667-353.564444-350.236444a20.792889 20.792889 0 0 0-27.960889-1.422222l-2.332444 2.247111L256 366.933333a41.585778 41.585778 0 0 0 59.818667-2.275555l113.095111-126.691556 307.342222 304.384a41.984 41.984 0 0 0 59.392-0.284444z"  horiz-adv-x="1024" />
      
      <glyph glyph-name="icon_suggest_36" unicode="&#59197;" d="M760.092444 816.64a111.132444 111.132444 0 0 0 110.990223-105.415111l0.142222-5.688889v-392.533333h-14.222222a26.595556 26.595556 0 0 0-26.396445 23.466666l-0.199111 3.128889V705.479111c0 37.290667-29.013333 67.811556-65.706667 70.200889l-4.608 0.142222H267.576889a70.343111 70.343111 0 0 1-70.172445-65.706666l-0.170666-4.636445v-650.24a70.314667 70.314667 0 0 1 65.706666-70.200889l4.636445-0.142222h170.382222c17.351111 0 25.770667-11.804444 26.766222-27.420444 0.142222-1.991111 0.170667-3.811556 0.085334-5.973334l-0.284445-6.599111h-14.250666v-0.796444H267.605333a111.132444 111.132444 0 0 0-110.990222 105.415111l-0.142222 5.688889V705.536a111.132444 111.132444 0 0 0 105.415111 110.990222l5.688889 0.142222h492.544z m41.301334-511.004444l3.157333-2.929778 49.777778-51.285334c14.876444-15.36 15.644444-39.253333 2.360889-55.466666l-2.844445-3.128889-214.613333-214.613333c-3.84-3.868444-8.533333-6.712889-13.681778-8.334223l-3.953778-0.967111-94.919111-17.578666a25.315556 25.315556 0 0 0-29.667555 28.359111l0.654222 3.157333 24.746667 91.392c1.251556 4.551111 3.413333 8.732444 6.343111 12.373333l2.360889 2.588445 213.902222 213.959111a41.784889 41.784889 0 0 0 56.376889 2.474667z m-68.295111-62.663112l-177.777778-177.777777-21.048889-77.710223 80.952889 14.961778 179.171555 179.2-61.297777 61.326222z m37.717333 37.290667l-1.649778-1.251555-11.918222-11.946667 61.297778-61.269333 11.178666 11.150222a7.651556 7.651556 0 0 1 1.991112 7.253333l-0.711112 1.820445-1.194666 1.649777-49.749334 51.256889a7.623111 7.623111 0 0 1-9.244444 1.336889z m-146.915556 22.158222c11.235556 0 19.427556-9.386667 20.707556-20.622222l0.199111-3.128889v-11.377778H325.774222c-11.264 0-19.456 9.386667-20.764444 20.650667l-0.142222 3.100445v11.377777h319.032888z m83.143112 169.386667c12.088889 0 22.072889-9.045333 23.552-20.764444l0.170666-2.958223v-11.377777h-410.168889a23.751111 23.751111 0 0 0-23.523555 20.764444l-0.199111 2.958222v11.377778h410.168889z m0 170.382222c14.449778 0 22.186667-9.472 24.177777-22.698666 0.369778-2.56 0.512-4.693333 0.568889-7.537778v-4.181334l-12.401778 0.028445v-0.711111h-398.791111a23.751111 23.751111 0 0 0-23.523555 20.764444l-0.199111 2.986667v11.377778h410.168889z"  horiz-adv-x="1024" />
      
      <glyph glyph-name="icon_search_28" unicode="&#59203;" d="M698.441143 208.896l232.740571-232.740571a54.857143 54.857143 0 0 0-77.568 0l-155.172571 155.172571a54.857143 54.857143 0 0 0-3.766857 73.398857l3.766857 4.169143zM420.571429 822.857143a347.428571 347.428571 0 1 0 0-694.857143 347.428571 347.428571 0 0 0 0 694.857143z m0-54.857143a292.571429 292.571429 0 1 1 0-585.142857 292.571429 292.571429 0 0 1 0 585.142857z"  horiz-adv-x="1024" />
      
      <glyph glyph-name="icon_points_16" unicode="&#59210;" d="M224 192c0-44.992 127.488-96 288-96 155.136 0 279.488 47.68 287.552 91.52L800 192h64c0-96.384-159.04-160-352-160-187.264 0-342.592 59.904-351.616 151.552L160 192h64z m0 192c0-44.992 127.488-96 288-96 155.136 0 279.488 47.68 287.552 91.52L800 384h64c0-96.384-159.04-160-352-160-187.264 0-342.592 59.904-351.616 151.552L160 384h64zM512 736c192.96 0 352-63.616 352-160S704.96 416 512 416 160 479.616 160 576 319.04 736 512 736z m0-64c-160.512 0-288-51.008-288-96S351.488 480 512 480s288 51.008 288 96S672.512 672 512 672z"  horiz-adv-x="1024" />
      
      <glyph glyph-name="icon_picture_28" unicode="&#59211;" d="M914.285714 749.714286a36.571429 36.571429 0 0 0 36.571429-36.571429v-73.289143a36.571429 36.571429 0 0 0-36.571429 36.571429V713.142857H109.714286v-547.328l181.613714 167.862857 218.916571-146.724571L914.285714 571.904l6.070857 5.778286L950.857143 606.72V54.857143a36.571429 36.571429 0 0 0-36.571429-36.571429H109.714286a36.571429 36.571429 0 0 0-36.571429 36.571429V713.142857a36.571429 36.571429 0 0 0 36.571429 36.571429h804.571428z m0-225.974857L513.755429 140.544l-219.977143 147.492571L109.714286 118.052571V54.857143h804.571428V523.739429zM292.571429 603.428571a54.857143 54.857143 0 1 0 0-109.714285 54.857143 54.857143 0 0 0 0 109.714285z"  horiz-adv-x="1024" />
      
      <glyph glyph-name="icon_phone_28" unicode="&#59215;" d="M91.428571 804.608l200.521143-0.036571a88.502857 88.502857 0 0 0 85.467429-65.462858l1.353143-5.851428 30.646857-152.466286a88.502857 88.502857 0 0 0-12.544-65.682286l-3.803429-5.412571-87.954285-116.187429-0.402286 0.475429a45.714286 45.714286 0 0 0-1.718857 57.270857l61.074285 80.749714c7.68 10.130286 11.337143 22.674286 10.386286 35.328l-0.768 5.705143-30.829714 153.270857a51.931429 51.931429 0 0 1-45.275429 41.398858l-5.12 0.292571H128.109714l0.329143-9.435429c14.08-414.354286 343.04-749.238857 755.456-771.949714l22.674286-0.987428v166.948571l-0.256 5.12a52.077714 52.077714 0 0 1-35.949714 44.397714l-4.973715 1.28-153.234285 30.829715-5.705143 0.804571a52.260571 52.260571 0 0 1-30.573715-6.765714l-4.827428-3.181715-84.260572-63.744-4.169142-2.779428a45.750857 45.750857 0 0 0-53.650286 4.973714l119.588571 90.368 5.412572 3.803429a88.32 88.32 0 0 0 58.550857 13.494857l7.204571-1.170286 152.393143-30.646857 5.851429-1.389714a88.429714 88.429714 0 0 0 64.987428-79.36l0.219429-6.326857-0.036572-200.118858h-2.633142v-3.328h-19.2C476.525714-47.250286 113.481143 303.872 92.379429 745.691429l-0.804572 22.418285-0.146286 36.461715z"  horiz-adv-x="1024" />
      
      <glyph glyph-name="icon_phone_16" unicode="&#59219;" d="M924.288-63.808a865.28 865.28 0 0 0-599.424 246.464A857.984 857.984 0 0 0 64.64 767.488v0.832L64 772.352V832h217.984c46.72 0 87.68-31.232 99.968-76.352l1.536-6.4 31.36-155.2a102.4 102.4 0 0 0-14.72-76.8l-4.16-5.888-98.56-129.664-3.072 2.432a59.648 59.648 0 0 0-11.648 83.648l62.336 82.048c5.824 7.68 8.64 17.28 7.936 26.88L352 581.696l-31.104 154.88a39.424 39.424 0 0 1-34.56 31.488H128.512v-0.832c8-200.32 91.392-390.336 233.408-531.904a802.688 802.688 0 0 1 533.12-235.008h0.832V160.896a39.424 39.424 0 0 1-31.68 34.24l-155.84 31.168-4.992 0.704h-2.816a39.936 39.936 0 0 1-23.936-8.064l-85.568-64.384a60.096 60.096 0 0 0-83.968 11.584l-2.432 3.2 139.328 104.576a103.936 103.936 0 0 0 76.992 14.656l162.24-32.64A103.552 103.552 0 0 0 960 156.16v-216.96h-2.624V-64l-33.088 0.192z"  horiz-adv-x="1024" />
      
      <glyph glyph-name="icon_owner_ios" unicode="&#59224;" d="M512 896a512 512 0 1 0 0-1024A512 512 0 0 0 512 896zM363.328 554.688H256l188.032-399.36c7.808-16.64 24.576-27.328 43.008-27.328h49.92c18.432 0 35.2 10.624 43.008 27.328L768 554.688h-107.456a47.552 47.552 0 0 1-43.52-28.416l-105.472-240L406.912 526.08a47.552 47.552 0 0 1-43.52 28.544z"  horiz-adv-x="1024" />
      
      <glyph glyph-name="icon_owner_deposit" unicode="&#59226;" d="M512 384m-512 0a512 512 0 1 1 1024 0 512 512 0 1 1-1024 0ZM512 896a512 512 0 1 0 0-1024A512 512 0 0 0 512 896z m0-68.288a443.712 443.712 0 1 1 0-887.424A443.712 443.712 0 0 1 512 827.712zM363.328 554.688c18.944 0 36.032-11.2 43.584-28.544l104.64-239.872 105.472 240a47.552 47.552 0 0 0 43.52 28.416H768l-188.032-399.36A47.552 47.552 0 0 0 536.96 128h-49.92a47.552 47.552 0 0 0-43.008 27.328L256 554.688h107.328z"  horiz-adv-x="1024" />
      
      <glyph glyph-name="icon_navigation_28_dark" unicode="&#59230;" d="M932.498286 784.676571l-0.548572-3.108571-227.437714-782.921143-1.499429-4.754286c-14.189714-37.924571-67.181714-41.216-85.796571-5.522285l-2.121143 4.644571-126.537143 360.740572-5.595428 5.595428-362.130286 126.390857-4.608 2.121143c-33.755429 17.554286-32.841143 67.401143 1.097143 83.931429l4.644571 1.974857 4.644572 1.462857 783.140571 228.754286 2.852572 0.512a18.285714 18.285714 0 0 0 19.894857-19.821715z m-80.164572-34.450285L135.68 539.830857l-2.413714-0.987428a10.788571 10.788571 0 0 1-1.170286-17.810286l2.56-1.462857 373.577143-130.925715 2.450286-1.243428a18.285714 18.285714 0 0 0 6.034285-6.144l1.316572-2.633143 130.816-371.602286 1.316571-2.450285a10.605714 10.605714 0 0 1 17.956572 0.877714l0.987428 2.450286L878.299429 724.48l-244.955429-244.955429a36.571429 36.571429 0 0 0-48.274286-3.035428l-3.437714 3.035428 270.701714 270.738286z"  horiz-adv-x="1024" />
      
      <glyph glyph-name="icon_moment_28" unicode="&#59231;" d="M804.571429 713.142857a36.571429 36.571429 0 0 0 36.571428-36.571428v-585.142858a36.571429 36.571429 0 0 0-36.571428-36.571428H219.428571a36.571429 36.571429 0 0 0-36.571428 36.571428V676.571429a36.571429 36.571429 0 0 0 36.571428 36.571428h585.142858z m0-36.571428H219.428571v-585.142858h585.142858V676.571429z m-310.857143-18.285715a36.571429 36.571429 0 0 0 36.571428-36.571428v-219.428572h256a36.571429 36.571429 0 0 0-36.571428-36.571428h-219.428572v-219.428572a36.571429 36.571429 0 0 0-32.292571-36.315428l-4.278857-0.256v256.036571l-219.428572-0.036571a36.571429 36.571429 0 0 0-36.315428 32.292571L237.714286 402.285714l256 0.036572V658.285714z"  horiz-adv-x="1024" />
      
      <glyph glyph-name="icon_more_36" unicode="&#59232;" d="M436.736 203.264L617.443556 384l-180.707556 180.736a28.444444 28.444444 0 0 1 0-40.248889L577.223111 384l-140.515555-140.515556a28.444444 28.444444 0 0 1 0-40.220444z"  horiz-adv-x="1024" />
      
      <glyph glyph-name="icon_more_28" unicode="&#59233;" d="M182.857143 438.857143a54.857143 54.857143 0 1 0 0-109.714286 54.857143 54.857143 0 0 0 0 109.714286z m329.142857 0a54.857143 54.857143 0 1 0 0-109.714286 54.857143 54.857143 0 0 0 0 109.714286z m329.142857 0a54.857143 54.857143 0 1 0 0-109.714286 54.857143 54.857143 0 0 0 0 109.714286z"  horiz-adv-x="1024" />
      
      <glyph glyph-name="icon_next_16" unicode="&#59234;" d="M460.864 812.864a51.456 51.456 0 0 1-1.664-67.584l4.8-5.056 324.864-297.728H169.216c0-28.416 23.04-51.456 51.392-51.456l568.32 0.064L464 93.44a51.456 51.456 0 0 1-7.488-67.2l4.352-5.504 432.128 396.16L460.8 812.8z"  horiz-adv-x="1024" />
      
      <glyph glyph-name="icon_navigation_36" unicode="&#59236;" d="M168.163556 532.593778l667.164444 223.004444 11.918222 3.896889 10.296889 3.128889c25.457778 7.338667 35.669333 6.485333 45.681778-3.527111 9.386667-9.386667 10.752-18.915556 4.835555-41.073778l-2.759111-9.557333-3.498666-11.093334-225.052445-673.336888a51.2 51.2 0 0 0-42.069333-34.417778l-4.920889-0.369778h-1.28a51.143111 51.143111 0 0 0-44.771556 26.453333l-2.104888 4.380445-125.070223 292.295111-292.295111 125.041778a51.256889 51.256889 0 0 0-30.435555 40.305777l-0.398223 4.437334v4.181333a51.2 51.2 0 0 0 30.833778 44.771556l3.925334 1.479111z m661.731555 180.053333l-649.301333-217.031111a12.032 12.032 0 0 1-8.163556-10.808889 12.088889 12.088889 0 0 1 5.12-10.325333l2.076445-1.166222 299.491555-128.113778c3.697778-1.592889 6.798222-4.266667 8.903111-7.623111l1.365334-2.645334 128.085333-299.463111a11.946667 11.946667 0 0 1 2.531556-3.726222 12.003556 12.003556 0 0 1 18.744888 2.474667l0.995556 2.190222L855.978667 683.52l-305.464889-305.493333a30.520889 30.520889 0 0 0-40.476445-2.275556l-2.645333 2.389333-6.030222 6.030223 22.926222 22.840889L829.895111 712.647111z"  horiz-adv-x="1024" />
      
      <glyph glyph-name="icon_mode_28" unicode="&#59238;" d="M749.714286 822.857143a36.571429 36.571429 0 0 0 36.571428-36.571429v-184.173714c61.952-8.886857 109.714286-62.317714 109.714286-126.683429s-47.762286-117.76-109.714286-126.683428V-18.285714a36.571429 36.571429 0 0 0-32.292571-36.315429L749.714286-54.857143V348.745143a128.182857 128.182857 0 0 0-109.714286 126.683428c0 64.365714 47.762286 117.76 109.714286 126.683429V822.857143z m-475.428572 0l4.278857-0.256A36.571429 36.571429 0 0 0 310.857143 786.285714v-367.030857c61.952-8.886857 109.714286-62.317714 109.714286-126.683428s-47.762286-117.76-109.714286-126.683429V-18.285714a36.571429 36.571429 0 0 0-36.571429-36.571429v220.745143a128.182857 128.182857 0 0 0-109.714285 126.683429c0 64.365714 47.762286 117.76 109.714285 126.683428V822.857143zM292.571429 384c-50.468571 0-91.428571-40.96-91.428572-91.428571C201.142857 242.176 242.102857 201.142857 292.571429 201.142857s91.428571 41.033143 91.428571 91.428572c0 50.468571-40.96 91.428571-91.428571 91.428571z m475.428571 182.857143c-50.468571 0-91.428571-41.033143-91.428571-91.428572 0-50.468571 40.96-91.428571 91.428571-91.428571s91.428571 40.96 91.428571 91.428571c0 50.395429-40.96 91.428571-91.428571 91.428572z"  horiz-adv-x="1060" />
      
      <glyph glyph-name="icon_idlocation_select_48" unicode="&#59244;" d="M521.557333 521.792m-202.666666 0a202.666667 202.666667 0 1 1 405.333333 0 202.666667 202.666667 0 1 1-405.333333 0Z"  horiz-adv-x="1024" />
      
      <glyph glyph-name="icon_help_28" unicode="&#59245;" d="M512 822.857143c242.358857 0 438.857143-196.498286 438.857143-438.857143s-196.498286-438.857143-438.857143-438.857143S73.142857 141.641143 73.142857 384 269.641143 822.857143 512 822.857143z m0-54.857143C299.922286 768 128 596.077714 128 384S299.922286 0 512 0 896 171.922286 896 384 724.077714 768 512 768z m-19.236571-564.955429c11.117714 0 20.48-3.949714 28.16-11.812571 7.643429-7.862857 11.446857-17.590857 11.446857-29.184 0-11.117714-3.803429-20.626286-11.483429-28.489143a37.668571 37.668571 0 0 0-28.123428-11.812571c-11.593143 0-21.211429 3.949714-28.854858 11.812571a39.424 39.424 0 0 0-11.446857 28.489143c0 11.593143 3.803429 21.321143 11.446857 29.184 7.68 7.862857 17.261714 11.812571 28.854858 11.812571z m23.625142 419.693715c23.149714 0 43.885714-3.949714 62.171429-11.812572 18.285714-7.862857 33.718857-18.176 46.226286-30.902857 12.507429-12.763429 22.125714-27.465143 28.818285-44.141714 6.729143-16.676571 10.093714-33.572571 10.093715-50.724572a142.518857 142.518857 0 0 0-37.193143-96.256c-12.251429-13.641143-27.428571-25.344-45.494857-35.072s-39.131429-16.676571-63.232-20.845714l-0.512-28.525714a50.907429 50.907429 0 0 0-50.907429-49.993143l-1.170286 95.451429a18.285714 18.285714 0 0 0 16.603429 18.432c20.004571 1.828571 34.779429 4.315429 44.324571 7.387428 18.066286 5.778286 33.462857 13.897143 46.226286 24.32 12.726857 10.386286 22.564571 22.784 29.513143 37.156572 6.948571 14.372571 10.422857 29.878857 10.422857 46.555428 0 11.593143-2.304 22.820571-6.948571 33.682286a89.234286 89.234286 0 0 1-20.150857 29.220571 105.508571 105.508571 0 0 1-31.268572 20.845715 96.841143 96.841143 0 0 1-39.606857 7.972571 138.24 138.24 0 0 1-73.325714-20.736 48.566857 48.566857 0 0 0-64.256 13.092571c16.201143 13.897143 36.132571 26.514286 59.757714 37.888 23.625143 11.337143 50.249143 17.005714 79.908571 17.005715z"  horiz-adv-x="1024" />
      
      <glyph glyph-name="icon_friend_28_normal" unicode="&#59247;" d="M886.857143 786.285714a64 64 0 0 0 63.780571-58.733714L950.857143 722.285714v-630.710857l-218.258286 150.784h-0.073143l-1.097143 0.073143v-116.662857a36.571429 36.571429 0 0 0-32.292571-36.352L694.857143 89.234286H293.705143L73.142857-54.857143V566.857143a36.571429 36.571429 0 0 0 32.292572 36.315428L109.714286 603.428571h109.568v23.881143l0.365714 95.085715a64 64 0 0 0 58.770286 63.670857L283.684571 786.285714H886.857143zM676.571429 548.571429h-548.571429v-502.052572l149.394286 97.536H676.571429V548.644571z m219.428571 182.857142H274.176v-124.964571L273.993143 603.428571H694.857143a36.571429 36.571429 0 0 0 36.315428-32.292571L731.428571 566.857143v-269.641143h18.285715l146.285714-101.083429V731.428571z"  horiz-adv-x="1024" />
      
      <glyph glyph-name="icon_friend_28_focused" unicode="&#59248;" d="M694.857143 603.428571a36.571429 36.571429 0 0 0 36.315428-32.292571L731.428571 566.857143v-441.088a36.571429 36.571429 0 0 0-32.292571-36.352L694.857143 89.234286H293.705143L73.142857-54.857143V566.857143a36.571429 36.571429 0 0 0 32.292572 36.315428L109.714286 603.428571h585.142857z m192 182.857143a64 64 0 0 0 63.780571-58.733714L950.857143 722.285714v-630.710857l-164.608 113.737143L786.285714 566.857143l-0.365714 7.424C780.361143 623.36 741.412571 658.285714 694.857143 658.285714H219.282286V713.142857l0.365714 0.109714v9.142858a64 64 0 0 0 58.770286 63.670857L283.684571 786.285714H886.857143z m-283.428572-329.142857h-402.285714a54.857143 54.857143 0 0 1 49.590857-54.601143L256 402.285714h292.571429a54.857143 54.857143 0 0 1 54.857142 54.857143z"  horiz-adv-x="1024" />
      
      <glyph glyph-name="icon_edit_16" unicode="&#59258;" d="M512 768a51.2 51.2 0 0 0-51.2-51.2H179.2v-665.6h665.6V332.8a51.2 51.2 0 0 0 44.8 50.816L896 384v-320a64 64 0 0 0-64-64H192a64 64 0 0 0-64 64V704a64 64 0 0 0 64 64h320z m298.752-58.624a51.2 51.2 0 0 0-0.256-72.384L463.808 293.12a51.2 51.2 0 0 0-66.688-4.672l-5.76 4.992 419.392 415.872z"  horiz-adv-x="1024" />
      
      <glyph glyph-name="icon_discover_28_normal" unicode="&#59261;" d="M512 838.107429l11.190857-0.146286c245.613714-5.961143 442.88-206.921143 442.88-453.961143 0-250.806857-203.264-454.107429-454.070857-454.107429-250.806857 0-454.107429 203.337143-454.107429 454.107429 0 247.04 197.302857 448 442.88 453.961143L512 838.107429z m0-54.857143l-10.605714-0.146286C285.732571 777.472 112.713143 600.941714 112.713143 384c0-220.525714 178.761143-399.250286 399.250286-399.250286 220.525714 0 399.250286 178.761143 399.250285 399.250286 0 216.941714-173.019429 393.472-388.608 399.104L512 783.250286z m0-201.142857l7.972571-0.182858a198.107429 198.107429 0 1 0-15.945142 0L512 582.107429z m0-54.857143l-7.387429-0.182857a143.250286 143.250286 0 1 1 14.774858 0L512 527.250286z"  horiz-adv-x="1024" />
      
      <glyph glyph-name="icon_copy_16" unicode="&#59262;" d="M768 704a64 64 0 0 0 64-64v-640a64 64 0 0 0-64-64H128a64 64 0 0 0-64 64V640a64 64 0 0 0 64 64h640z m0-64H128v-640h640V640z m128 192a64 64 0 0 0 64-64v-640a64 64 0 0 0-64-64V768H192a64 64 0 0 0 64 64h640z"  horiz-adv-x="1024" />
      
      <glyph glyph-name="icon_email_16" unicode="&#59263;" d="M928 460.8h64v-64h-64zM928 796.8a64 64 0 0 0 64-64v-704a64 64 0 0 0-64-64h-832a64 64 0 0 0-64 64v704a64 64 0 0 0 64 64z m0-64h-832v-704h832v704z m-142.848-120.128a64 64 0 0 0 37.504-16.768l5.76-6.144-312.64-258.432-312.64 258.432a64 64 0 0 0 90.112 8.512l222.528-183.936 222.528 183.936a64 64 0 0 0 46.848 14.4z"  horiz-adv-x="1024" />
      
      <glyph glyph-name="icon_copylink_28" unicode="&#59264;" d="M731.428571 603.428571v-658.285714H73.142857V603.428571h658.285714z m-54.857142-54.857142h-548.571429v-548.571429h548.571429v548.571429zM950.857143 822.857143v-585.142857h-146.285714l0.256 5.376a58.88 58.88 0 0 0 58.660571 53.540571h32.073143V764.708571H428.836571v-25.014857C428.836571 704.841143 400.566857 676.571429 365.714286 676.571429V822.857143h585.142857z"  horiz-adv-x="1024" />
      
      <glyph glyph-name="icon_commentary_16" unicode="&#59267;" d="M196.288 768l690.88-0.192c30.08 0 54.528-24.448 54.528-54.592v-545.408a54.528 54.528 0 0 0-49.28-54.336l-5.248-0.192-550.848 0.192a36.352 36.352 0 0 1-22.784-8L141.696-32V713.472c0 28.352 21.632 51.648 49.28 54.272L196.288 768z m139.008-594.752l6.656 0.192 535.744-0.128V703.744L205.696 704v-614.656l80.96 64.768c13.952 11.136 30.912 17.792 48.64 19.136z"  horiz-adv-x="1088" />
      
      <glyph glyph-name="icon_close_solid_16" unicode="&#59269;" d="M512 896a512 512 0 1 0 0-1024A512 512 0 0 0 512 896z m218.112-323.584a57.6 57.6 0 0 1-75.52-5.12L512 424.768 369.472 567.296a57.6 57.6 0 0 1-81.472 0L471.296 384 288 200.704l5.888-5.12a57.6 57.6 0 0 1 75.52 5.12L512 343.296l142.528-142.592a57.6 57.6 0 0 1 81.472 0L552.704 384 736 567.296z"  horiz-adv-x="1024" />
      
      <glyph glyph-name="icon_check_28_dark" unicode="&#59275;" d="M910.628571 648.886857L391.533714 129.828571a12.032 12.032 0 0 0-16.969143 0L109.714286 394.715429a36.571429 36.571429 0 0 0 51.712 0l221.622857-221.622858 475.830857 475.794286a36.571429 36.571429 0 0 0 51.712 0z"  horiz-adv-x="1024" />
      
      <glyph glyph-name="icon_check_16_dark" unicode="&#59277;" d="M953.6 655.552L365.184 67.2a21.056 21.056 0 0 0-29.696 0L64 338.752a64 64 0 0 0 90.496 0l195.84-195.84 512.704 512.64a64 64 0 0 0 90.496 0z"  horiz-adv-x="1024" />
      
      <glyph glyph-name="icon_carstate_normal_28" unicode="&#59281;" d="M512 822.857143c241.993143 0 438.857143-196.864 438.857143-438.857143 0-238.262857-190.829714-432.786286-427.702857-438.710857L512-54.857143l-11.154286 0.146286C263.972571-48.786286 73.142857 145.700571 73.142857 384 73.142857 625.993143 270.006857 822.857143 512 822.857143z m0-56.137143l-10.532571-0.146286C295.314286 760.978286 129.28 591.506286 129.28 384c0-211.017143 171.702857-382.72 382.72-382.72S894.72 172.982857 894.72 384c0 207.506286-166.034286 376.978286-372.187429 382.573714L512 766.72z m-0.914286-495.030857a36.571429 36.571429 0 1 0 0-73.142857 36.571429 36.571429 0 0 0 0 73.142857z m-1.060571 292.059428c30.317714 0 54.857143-23.881143 54.857143-53.321142 0-2.304-0.365714-4.461714-0.694857-6.692572h0.256l-20.662858-163.291428h-0.073142a34.011429 34.011429 0 0 0-33.645715-27.501715 33.974857 33.974857 0 0 0-33.718857 27.501715h-0.073143l-20.809143 163.291428h0.402286c-0.292571 2.194286-0.694857 4.388571-0.694857 6.692572 0 29.44 24.576 53.321143 54.857143 53.321142z"  horiz-adv-x="1024" />
      
      <glyph glyph-name="icon_bluetooth_16_ios" unicode="&#59286;" d="M512 832a448 448 0 1 0 0-896A448 448 0 0 0 512 832z m-51.84-132.224v-255.936L318.016 538.624l-3.776-6.4a64 64 0 0 1 21.504-82.368L434.432 384 335.68 318.144a64 64 0 0 1-17.728-88.768l142.272 94.848v-256L741.888 256l-192 128 192 128-281.664 187.776z m64-375.616L626.496 256 524.16 187.904V324.16z m0 256L626.496 512 524.16 443.904V580.16z"  horiz-adv-x="1024" />
      
      <glyph glyph-name="icon_car_28_normal" unicode="&#59288;" d="M513.426286 813.129143l35.401143-1.536 59.611428-2.998857 31.378286-1.974857 19.236571-1.426286 15.579429-1.426286 11.885714-1.389714 12.251429-2.048c44.690286-8.155429 75.812571-22.747429 94.939428-52.736l2.011429-3.291429 5.705143-9.801143 7.387428-13.165714 47.396572-86.674286 17.298285-30.793142 8.374858-15.433143 11.044571-21.577143H987.428571l-0.256-5.266286a54.857143 54.857143 0 0 0-49.334857-49.371428l-5.266285-0.219429h-10.313143l23.990857-40.301714c7.606857-13.860571 12.982857-26.806857 17.005714-42.057143l2.267429-9.398857c0.877714-4.059429 1.718857-8.411429 2.56-13.092572l1.170285-7.204571 2.194286-15.835429 1.901714-17.700571 0.877715-9.581714 1.938285-26.112 1.572572-29.257143v-93.696c0-14.336-2.523429-28.598857-7.424-42.020572a70.217143 70.217143 0 0 1-3.913143-17.700571l-0.256-5.997714v-142.409143c0-23.186286-17.627429-42.276571-40.228571-44.580572l-4.571429-0.219428h-119.186286a44.8 44.8 0 0 0-44.580571 40.228571l-0.219429 4.571429v101.485714H266.532571v-101.485714c0-21.650286-15.36-39.716571-35.766857-43.885715l-4.461714-0.694857-4.571429-0.219428H102.582857a44.8 44.8 0 0 0-44.580571 40.228571l-0.219429 4.571429v142.409143c0 6.034286-0.804571 12.068571-2.340571 17.883428l-4.461715 13.897143a121.856 121.856 0 0 0-3.108571 14.006857l-1.024 0.182857 0.548571 2.998857a124.086857 124.086857 0 0 0-0.841142 8.118858l-0.292572 8.630857v94.902857l1.316572 24.868571 0.768 11.629715 1.718857 21.686857 2.011428 19.602285 2.304 17.444572c1.243429 8.228571 2.56 15.652571 4.022857 22.308571 3.547429 16.310857 8.265143 29.622857 15.030858 43.300572l4.315428 8.228571 23.990857 40.265143H91.428571a54.857143 54.857143 0 0 0-54.601142 49.590857L36.571429 566.857143h94.427428l11.117714 21.650286 8.338286 15.36 9.837714 17.444571 54.784 99.913143 10.532572 18.651428 4.644571 7.68c19.090286 29.988571 50.212571 44.617143 94.939429 52.809143l12.288 2.011429 7.497143 0.914286 14.994285 1.462857 13.275429 1.097143 23.808 1.645714 50.102857 2.779428 63.341714 2.852572h2.925715zM286.171429 320.475429c-26.441143-26.258286-45.494857-49.810286-57.161143-70.4-27.684571-48.896-57.344-73.252571-101.156572-75.702858l-7.460571-0.182857-5.229714 0.512-8.557715 1.645715 0.182857-0.512c2.377143-8.228571 3.84-16.713143 4.461715-25.234286l0.292571-8.557714v-133.449143h101.229714l0.036572 101.485714c0 21.650286 15.36 39.716571 35.766857 43.885714l4.461714 0.694857 4.571429 0.219429h508.708571c23.186286 0 42.276571-17.627429 44.580572-40.228571l0.219428-4.571429v-101.485714h101.229715l0.036571 133.449143c0 8.557714 0.914286 17.115429 2.669714 25.490285l1.645715 6.656-7.387429 0.256c-40.740571 2.816-72.96 28.013714-96.768 68.388572l-4.388571 7.716571c-9.252571 17.225143-28.342857 40.118857-57.051429 68.022857-13.531429-1.462857-26.989714-2.340571-40.521143-2.779428l-17.554286-0.256H360.192c-24.722286 0-49.371429 1.609143-73.984 4.937143zM105.801143 376.685714l-1.389714-12.288-1.718858-19.017143-0.731428-10.24-0.731429-10.752-1.206857-22.966857-0.036571-67.913143 22.674285-4.388571h2.304c20.845714 1.389714 35.145143 12.434286 52.553143 41.435429l3.766857 6.509714c9.984 17.627429 23.698286 36.205714 41.069715 55.808a352.329143 352.329143 0 0 0-12.909715 3.364571l-18.761142 5.595429-84.882286 34.852571z m813.458286-10.130285l-37.595429-18.395429c-21.211429-7.570286-42.788571-13.860571-64.658286-18.797714 15.579429-17.042286 27.538286-32.548571 35.949715-46.628572l3.510857-6.180571c15.725714-29.257143 34.230857-45.165714 55.588571-47.286857l2.267429-0.109715 9.654857 2.340572V300.251429l-0.585143 12.068571-1.353143 22.564571a1024.365714 1024.365714 0 0 1-1.609143 20.297143l-0.914285 9.325715-0.256 2.121142zM512.292571 759.405714l-55.04-2.486857-28.452571-1.462857-39.168-2.340571-18.505143-1.353143-14.738286-1.28-10.898285-1.28-10.752-1.755429c-28.306286-5.266286-46.921143-13.275429-56.685715-25.344l-2.450285-3.401143-4.242286-7.131428-10.020571-17.737143-46.738286-85.504-17.078857-30.354286-7.972572-14.774857-28.123428-54.601143-10.057143-18.285714-26.514286-44.507429a142.262857 142.262857 0 0 1-7.131428-14.701714l91.538285-37.668571a505.782857 505.782857 0 0 1 133.851429-22.784l17.042286-0.256h332.909714c57.965714 0 115.565714 9.947429 167.277714 28.233142l48.932572 24.064a121.197714 121.197714 0 0 1-6.436572 15.945143l-3.730286 7.204572-26.477714 44.507428-8.118857 14.628572-7.899429 14.921143-9.398857 18.505142-15.433143 29.696-5.339428 9.801143-11.52 20.333715-44.068572 80.64-18.285714 32.731428-4.205714 7.094857c-8.923429 14.006857-28.269714 23.003429-59.136 28.745143l-7.972572 1.353143-5.961142 0.804571-12.178286 1.28-15.981714 1.353143-19.675429 1.353143-40.996571 2.340572-74.166858 3.474285z"  horiz-adv-x="1024" />
      
      <glyph glyph-name="checkbox_selected_28" unicode="&#59088;" d="M512 896c282.770286 0 512-229.229714 512-512s-229.229714-512-512-512S0 101.229714 0 384 229.229714 896 512 896z m362.057143-321.645714a76.8 76.8 0 0 1-108.617143 0L394.349714 203.264l-117.686857 117.650286a76.8 76.8 0 0 1-108.617143 0l190.098286-190.061715a51.2 51.2 0 0 1 72.411429 0z"  horiz-adv-x="1024" />
      
      <glyph glyph-name="checkbox_unselected_28_disabled" unicode="&#59090;" d="M512 384m-512 0a512 512 0 1 1 1024 0 512 512 0 1 1-1024 0Z"  horiz-adv-x="1024" />
      
      <glyph glyph-name="checkbox_unselected_28" unicode="&#59091;" d="M512 896c282.770286 0 512-229.229714 512-512s-229.229714-512-512-512S0 101.229714 0 384 229.229714 896 512 896z m0-51.2C257.499429 844.8 51.2 638.500571 51.2 384S257.499429-76.8 512-76.8 972.8 129.499429 972.8 384 766.500571 844.8 512 844.8z"  horiz-adv-x="1024" />
      
      <glyph glyph-name="icon_at_28" unicode="&#59094;" d="M523.264 744.777143c45.056 0 88.502857-6.875429 130.413714-20.662857a333.275429 333.275429 0 0 0 110.592-60.672 296.411429 296.411429 0 0 0 76.397715-97.755429c18.980571-38.473143 28.452571-82.505143 28.452571-132.169143 0-38.656-4.352-71.972571-13.056-99.913143-8.667429-27.867429-19.821714-50.834286-33.426286-68.900571-13.458286-17.883429-28.708571-31.085714-45.714285-39.570286a114.468571 114.468571 0 0 0-51.712-12.763428c-21.211429 0-43.337143 6.802286-57.161143 17.078857a102.034286 102.034286 0 0 0-21.942857 22.784l-4.388572 6.729143-3.547428 6.326857-3.84 9.984-14.043429-13.897143c-10.825143-10.166857-21.577143-18.102857-34.121143-24.758857l-7.789714-3.876572-8.301714-3.584c-19.126857-7.789714-42.569143-11.154286-69.339429-11.154285-24.502857 0-46.555429 4.681143-66.267429 14.006857a158.939429 158.939429 0 0 0-50.761142 37.449143 166.509714 166.509714 0 0 0-32.402286 53.942857 182.857143 182.857143 0 0 0-11.373714 64.256c0 22.491429 3.803429 44.032 11.337142 64.658286a165.558857 165.558857 0 0 0 32.438858 54.345142 158.939429 158.939429 0 0 0 50.761142 37.449143c19.748571 9.325714 41.801143 14.006857 66.267429 14.006857 23.04 0 46.08-4.022857 65.609143-11.52 15.286857-5.851429 31.926857-15.542857 44.982857-26.258285l6.217143-5.412572 5.558857-5.632 7.533714-8.118857 2.121143 48.896h5.339429l3.803428-0.256a31.670857 31.670857 0 0 0 26.550857-23.04l0.841143-4.169143 0.292572-4.169143v-195.108571l0.146285-6.948571c1.792-46.08 21.211429-67.035429 60.672-67.035429 10.971429 0 26.477714 5.083429 37.851429 12.068571 13.165714 8.045714 20.955429 15.177143 29.769143 28.635429 10.386286 15.872 17.846857 33.462857 23.698286 56.576 5.997714 23.734857 8.996571 52.662857 8.996571 86.893714 0 38.765714-7.387429 74.971429-22.125714 108.617143a259.803429 259.803429 0 0 1-62.756572 87.698286c-26.989714 24.868571-59.318857 44.361143-96.914285 58.514286-37.595429 14.153143-79.469714 21.248-125.659429 21.248-49.517714 0-94.610286-9.252571-135.204571-27.794286A322.633143 322.633143 0 0 1 284.306286 607.817143a340.004571 340.004571 0 0 1-66.56-104.484572 315.867429 315.867429 0 0 1-23.661715-119.734857c0-43.008 8.045714-84.114286 24.137143-123.355428a325.046857 325.046857 0 0 1 66.925715-103.350857 324.315429 324.315429 0 0 1 102.144-71.058286c39.497143-17.737143 82.724571-26.587429 129.536-26.587429a393.728 393.728 0 0 1 136.886857 24.064c15.652571 5.851429 30.061714 12.141714 43.264 18.870857l9.691428 5.12 3.364572 1.901715 7.497143 4.534857 3.766857 2.011428 4.132571 1.499429a31.670857 31.670857 0 0 0 29.330286-6.436571l3.291428-3.218286 4.681143-6.436572-1.865143-1.645714-10.166857-6.875428a400.822857 400.822857 0 0 0-85.942857-42.715429c-21.211429-7.68-44.434286-14.08-69.632-19.126857-25.161143-5.010286-52.077714-7.533714-80.713143-7.533714a350.829714 350.829714 0 0 0-138.459428 27.794285 361.801143 361.801143 0 0 0-114.724572 76.580572 364.8 364.8 0 0 0-77.787428 114.322285c-19.017143 43.629714-28.562286 90.843429-28.562286 141.641143 0 50.797714 9.874286 98.121143 29.732571 141.970286A370.249143 370.249143 0 0 0 264.813714 640.365714c33.609143 32.548571 72.777143 58.075429 117.540572 76.617143a364.617143 364.617143 0 0 0 140.909714 27.794286z m-17.700571-223.451429c-19.529143 0-36.864-3.657143-52.041143-10.971428a113.810286 113.810286 0 0 1-38.217143-29.403429c-10.313143-12.251429-18.285714-26.477714-23.844572-42.605714-5.522286-16.091429-8.301714-32.987429-8.301714-50.688 0-17.700571 2.779429-34.633143 8.301714-50.688a128 128 0 0 1 23.881143-42.24c10.386286-12.068571 23.149714-21.613714 38.253715-28.635429 15.140571-6.985143 32.475429-10.496 51.968-10.496 30.061714 0 54.966857 7.606857 74.605714 22.747429 16.457143 12.690286 30.683429 28.123429 39.570286 43.52l3.474285 6.619428 2.998857 7.021715 0.950858 3.145143 0.109714 104.630857-0.950857 3.474285-6.070857 8.996572-6.765715 9.216-7.168 9.069714a128.621714 128.621714 0 0 1-26.331428 24.283429 126.537143 126.537143 0 0 1-74.422857 23.04z"  horiz-adv-x="1024" />
      
      <glyph glyph-name="a-icon__281" unicode="&#59096;" d="M694.857143 749.714286a29.988571 29.988571 0 0 0 29.403428-35.84L590.994286 47.652571a36.571429 36.571429 0 0 0-35.84-29.403428H548.571429l43.885714 219.465143H359.021714a30.573714 30.573714 0 0 0-29.988571 36.571428H599.771429L643.657143 493.714286h-145.554286a30.573714 30.573714 0 0 0-29.988571 36.571428h182.857143L694.857143 749.714286z m-256 0a29.988571 29.988571 0 0 0 29.403428-35.84L334.994286 47.652571a36.571429 36.571429 0 0 0-35.84-29.403428H292.571429l43.885714 219.465143H182.857143A36.571429 36.571429 0 0 0 146.285714 274.285714l197.485715 0.036572L387.657143 493.714286H182.857143a36.571429 36.571429 0 0 0-36.571429 36.571428h248.685715L438.857143 749.714286z m156.379428-475.392L877.714286 274.285714a36.571429 36.571429 0 0 0-36.571429-36.571428h-218.075428a28.891429 28.891429 0 0 0-27.830858 36.608zM633.344 530.285714H877.714286a36.571429 36.571429 0 0 0-36.571429-36.571428h-181.028571a28.050286 28.050286 0 0 0-26.770286 36.571428z"  horiz-adv-x="1024" />
      
      <glyph glyph-name="icon_add_28" unicode="&#59097;" d="M475.428571 822.857143a54.857143 54.857143 0 0 0 54.857143-54.857143v-356.571429h411.428572a54.857143 54.857143 0 0 0-54.857143-54.857142H530.285714v-356.571429a54.857143 54.857143 0 0 0-49.590857-54.601143L475.428571-54.857143V356.571429H118.857143a54.857143 54.857143 0 0 0-54.601143 49.590857l-0.256 5.266285H475.428571V822.857143z"  horiz-adv-x="1024" />
      
      <glyph glyph-name="icon_add_line_28" unicode="&#59101;" d="M493.714286 822.857143a36.571429 36.571429 0 0 0 36.571428-36.571429v-384H950.857143a36.571429 36.571429 0 0 0-36.571429-36.571428H530.285714V-18.285713999999984a36.571429 36.571429 0 0 0-32.292571-36.315429L493.714286-54.85714299999995V365.714286H109.714286a36.571429 36.571429 0 0 0-36.315429 32.292571L73.142857 402.285714h420.571429V822.857143z"  horiz-adv-x="1024" />
      
      <glyph glyph-name="icon_accident_36" unicode="&#59103;" d="M507.562667 797.411556c15.843556 0 30.293333-7.907556 37.688889-20.622223l435.768888-754.830222a43.804444 43.804444 0 0 0 0-43.406222c-7.765333-13.454222-22.186667-21.76-37.660444-21.76h-135.964444c0 15.928889 12.913778 28.785778 28.814222 28.785778h107.150222a14.677333 14.677333 0 0 1 12.657778 22.044444L520.305778 762.339556c-2.673778 4.636444-8.334222 6.257778-12.714667 6.257777-4.380444 0-10.012444-1.621333-12.686222-6.257777L59.136 7.566222a15.075556 15.075556 0 0 1 0.056889-14.791111c2.531556-4.380444 7.395556-7.196444 12.657778-7.196444h630.670222l28.046222 0.113777c-2.104889-14.506667-3.555556-28.899556-45.368889-28.899555H71.850667a43.576889 43.576889 0 0 0-37.660445 21.731555A44.032 44.032 0 0 0 34.133333 21.902222L469.959111 776.732444c7.395556 12.743111 21.731556 20.679111 37.603556 20.679112z m9.955555-627.598223v-46.364444a19.882667 19.882667 0 0 0-19.854222-19.882667v46.364445c0 10.979556 8.903111 19.882667 19.882667 19.882666z m-0.568889 323.868445v-230.4c0-8.96-8.817778-14.478222-17.635555-17.009778l-1.052445-0.227556V475.022222c0 10.296889 8.391111 18.659556 18.688 18.659556z"  horiz-adv-x="1024" />
      
      <glyph glyph-name="icon_address_16_close" unicode="&#59104;" d="M778.752 832a62.08 62.08 0 0 0 15.232-86.4l-1.088-1.6-9.856-13.248a354.688 354.688 0 0 0 112.832-229.952 412.16 412.16 0 0 0-116.48-324.416l-12.224-12.032-19.392-18.176-235.52-210.816-195.968 170.56-97.792-131.072a62.08 62.08 0 0 0-14.144 88l63.552 85.184-14.272 13.952a422.72 422.72 0 0 0-125.504 338.816 354.688 354.688 0 0 0 186.88 282.496l14.016 7.04 1.216 0.64a422.784 422.784 0 0 0 346.112 7.744l17.408-7.808 15.232-7.68c8-4.16 15.744-8.704 23.296-13.44L778.752 832z m-34.24-152.832l-79.04-105.792a192 192 0 0 0-220.608-295.296l-90.24-120.768 157.056-136.512 192.832 172.608 18.88 17.664a348.16 348.16 0 0 1 108.736 284.16 290.688 290.688 0 0 1-87.68 183.936zM374.144 740.48l-16.384-7.36-14.336-7.232A290.688 290.688 0 0 1 191.872 495.36a358.72 358.72 0 0 1 94.72-275.456l11.84-12.096 8.128-7.936L389.248 310.4a192 192 0 1 0 229.44 307.264l75.2 100.608a290.816 290.816 0 0 1-13.312 7.68l-13.056 6.592-1.28 0.64a358.784 358.784 0 0 1-292.096 7.296zM624.64 518.848L485.76 332.736a128 128 0 0 1 138.88 186.112zM512 586.048a128 128 0 0 1-84.352-224.256l152.704 204.48A127.36 127.36 0 0 1 512 586.048z"  horiz-adv-x="1024" />
      
      <glyph glyph-name="icon_address_16_open" unicode="&#59106;" d="M330.24 790.912a422.784 422.784 0 0 0 363.52 0l15.232-7.68a354.688 354.688 0 0 0 186.88-282.432 412.16 412.16 0 0 0-128.704-336.448l-19.392-18.176-235.52-210.816L268.8 147.2l-15.168 14.784a422.72 422.72 0 0 0-125.504 338.816A354.688 354.688 0 0 0 328.96 790.4z m336-57.792a358.784 358.784 0 0 1-308.48 0l-14.336-7.232A290.688 290.688 0 0 1 191.872 495.36a358.72 358.72 0 0 1 106.56-287.552l13.76-13.568 199.488-173.44 192.832 172.672 18.88 17.664a348.16 348.16 0 0 1 108.736 284.16 290.688 290.688 0 0 1-164.608 237.312zM512 650.048a192 192 0 1 0 0-384 192 192 0 0 0 0 384z m0-64a128 128 0 1 1 0-256 128 128 0 0 1 0 256z"  horiz-adv-x="1024" />
      
      <glyph glyph-name="icon_airconditioner__28_dark" unicode="&#59107;" d="M630.016 373.942857a85.906286 85.906286 0 0 0-22.272-62.317714 85.869714 85.869714 0 0 0-59.830857-28.269714 85.357714 85.357714 0 0 0-62.281143 22.308571 85.869714 85.869714 0 0 0-28.269714 59.794286 86.528 86.528 0 0 0 86.308571 90.697143c45.750857 0 84.114286-36.059429 86.345143-82.212572z m87.881143-237.568c-2.925714-36.681143-29.257143-69.083429-78.262857-96.256-55.771429-30.902857-193.097143-24.758857-218.953143 2.486857-2.413714 2.56-3.108571 4.022857-0.365714 8.374857 14.921143 23.661714 34.962286 41.581714 54.345142 58.916572 38.107429 34.084571 77.385143 69.339429 75.702858 145.188571a113.810286 113.810286 0 0 1 75.629714 34.706286c61.184-51.2 95.561143-107.885714 91.904-153.417143zM370.176 604.306286c2.925714 36.644571 29.257143 69.010286 78.226286 96.182857 55.734857 30.866286 193.097143 24.832 218.88-2.486857 2.450286-2.56 3.145143-4.022857 0.365714-8.411429-14.665143-23.332571-34.377143-41.581714-53.430857-59.245714-37.961143-35.145143-77.129143-71.460571-76.434286-145.993143a113.92 113.92 0 0 1-75.446857-33.792c-61.366857 51.273143-95.817143 108.068571-92.16 153.746286z m362.788571-239.689143a28.379429 28.379429 0 0 1 4.022858-39.936l1.755428-1.426286c16.091429-11.849143 29.878857-26.697143 44.470857-42.422857 18.907429-20.443429 38.436571-41.545143 64.950857-58.221714 6.582857-4.132571 13.238857-6.180571 19.748572-6.180572 8.338286 0 16.310857 3.328 23.296 9.947429 39.058286 36.973714 43.739429 188.452571 7.789714 253.257143-31.963429 57.746286-71.899429 88.868571-118.637714 92.635428-77.238857 6.070857-146.249143-63.670857-179.2-103.314285a114.066286 114.066286 0 0 1-34.523429 13.129142c-1.28 63.451429 30.208 93.476571 66.889143 127.414858 20.406857 18.907429 41.508571 38.473143 58.185143 64.987428 9.362286 14.921143 7.972571 30.573714-3.766857 43.008-36.937143 39.094857-188.489143 43.702857-253.293714 7.826286-57.782857-32.073143-89.014857-72.009143-92.781715-118.747429-6.107429-76.178286 63.268571-145.554286 102.838857-178.614857a113.956571 113.956571 0 0 1-15.725714-63.890286c1.462857-29.074286 13.604571-55.844571 34.230857-76.105142-51.053714-61.074286-107.629714-95.451429-153.051428-91.684572-36.681143 2.925714-69.12 29.330286-96.329143 78.445714-30.866286 55.698286-24.795429 193.097143 2.486857 218.88 2.56 2.377143 3.986286 3.108571 8.374857 0.365715 23.625143-14.848 41.581714-34.889143 58.953143-54.235429 15.030857-16.822857 30.610286-34.230857 49.664-47.908571 0.475429-0.329143 0.987429-0.365714 1.462857-0.658286l2.121143-1.645714a28.16 28.16 0 0 1 39.168 7.314285l-25.417143 17.444572-0.109714-0.109714c-0.219429 0.219429-0.365714 0.512-0.658286 0.731428-16.530286 11.849143-30.427429 27.355429-45.092571 43.776-18.651429 20.772571-37.961143 42.349714-64.987429 59.318857-14.884571 9.398857-30.537143 8.045714-43.008-3.766857-39.058286-36.937143-43.739429-188.452571-7.789714-253.293714 32.109714-57.929143 72.118857-89.234286 118.857143-93.001143 3.181714-0.219429 6.326857-0.365714 9.472-0.365714 72.265143 0 137.142857 65.243429 168.667428 103.021714 11.081143-6.473143 23.04-11.117714 35.584-13.531429 2.194286-64.438857-29.220571-93.293714-65.828571-125.988571-20.845714-18.651429-42.422857-37.924571-59.465143-64.987429-9.362286-14.884571-8.009143-30.537143 3.766857-42.971428 20.041143-21.174857 73.581714-32.219429 128.841143-32.219429 46.811429 0 94.72 7.936 124.452571 24.393143 57.856 32.073143 89.088 72.045714 92.854858 118.784 6.107429 76.214857-63.378286 145.590857-102.912 178.578286a114.322286 114.322286 0 0 1-19.382858 138.898286c51.382857 61.549714 108.105143 96.402286 154.185143 92.416 36.644571-2.925714 68.973714-29.220571 96.073143-78.08 30.902857-55.698286 24.795429-193.097143-2.450286-218.88-2.56-2.413714-4.022857-3.108571-8.411428-0.365715-23.369143 14.701714-41.618286 34.377143-59.245714 53.467429-14.445714 15.579429-29.44 31.670857-47.030858 44.873143l-24.064 19.638857z"  horiz-adv-x="1060" />
      
      <glyph glyph-name="icon_arrows_16" unicode="&#59111;" d="M342.656 790.656L749.248 384l-406.592-406.656a64 64 0 0 0 0 90.56L658.752 384l-316.16 316.16a64 64 0 0 0 0 90.496z"  horiz-adv-x="1024" />
      
      <glyph glyph-name="icon_arrowsdown_28" unicode="&#59114;" d="M105.764571 458.898286a54.857143 54.857143 0 0 0 73.508572 0.585143l4.022857-3.949715 317.513143-346.514285 0.036571 660.992a54.857143 54.857143 0 0 0 54.857143-54.857143v-606.134857l317.586286 346.514285a54.857143 54.857143 0 0 0 73.142857 6.948572l4.352-3.584-422.509714-460.909715L105.764571 458.898286z"  horiz-adv-x="1024" />
      
      <glyph glyph-name="icon_back_16" unicode="&#59116;" d="M553.344 854.656a64 64 0 0 0 0-90.56L205.184 416H960a64 64 0 0 0-64-64H128a32 32 0 0 0-22.656 54.656l448 448zM291.072 266.176l262.272-262.272a64 64 0 0 0 0-90.56L200.576 266.24a64 64 0 0 0 90.496 0z"  horiz-adv-x="1024" />
      
      <glyph glyph-name="icon_arrowsdown_16" unicode="&#59118;" d="M950.656 553.344L544 146.752 137.344 553.344a64 64 0 0 0 90.56 0L544 237.248l316.16 316.16a64 64 0 0 0 90.496 0z"  horiz-adv-x="1088" />
      
      <glyph glyph-name="icon_arrows_selector_16" unicode="&#59119;" d="M768 576v-448H320z"  horiz-adv-x="1024" />
      
      <glyph glyph-name="icon_back_28" unicode="&#59121;" d="M603.172571 806.509714a54.857143 54.857143 0 0 0 0.585143-73.508571l-3.949714-4.022857-346.514286-317.513143L914.285714 411.428571a54.857143 54.857143 0 0 0-54.857143-54.857142H253.293714l346.514286-317.586286a54.857143 54.857143 0 0 0 6.948571-73.142857l-3.584-4.352L142.262857 384 603.172571 806.509714z"  horiz-adv-x="1024" />
      
      <glyph glyph-name="icon_car_28_focused" unicode="&#59128;" d="M286.171429 320.475429c18.468571-2.486857 36.937143-4.022857 55.478857-4.644572l18.505143-0.292571h332.909714l17.517714 0.256c13.531429 0.438857 27.026286 1.353143 40.484572 2.779428 26.112-25.344 44.251429-46.592 54.308571-63.158857l7.168-12.580571c23.771429-40.374857 56.027429-65.572571 96.768-68.388572l7.753143-0.256 6.436571 0.768 52.553143 12.617143a122.514286 122.514286 0 0 0-5.741714-21.833143 70.217143 70.217143 0 0 1-3.913143-17.700571l-0.256-5.997714v-142.409143c0-23.186286-17.627429-42.276571-40.228571-44.580572l-4.571429-0.219428h-119.186286a44.8 44.8 0 0 0-44.580571 40.228571l-0.219429 4.571429v101.485714H266.532571v-101.485714c0-21.650286-15.36-39.716571-35.766857-43.885715l-4.461714-0.694857-4.571429-0.219428H102.582857a44.8 44.8 0 0 0-44.580571 40.228571l-0.219429 4.571429v142.409143c0 6.034286-0.804571 12.068571-2.340571 17.883428l-4.461715 13.897143a121.856 121.856 0 0 0-3.108571 14.006857l67.291429-13.165714 5.229714-0.475429 7.460571 0.219429c41.252571 2.267429 69.924571 23.954286 96.256 67.291428l4.900572 8.374858c11.702857 20.589714 30.72 44.141714 57.161143 70.4z m-231.789715 77.385142l136.301715-55.990857 18.761142-5.595428c4.315429-1.170286 8.630857-2.340571 12.909715-3.364572a356.425143 356.425143 0 0 1-35.766857-46.921143l-9.069715-15.36c-16.091429-26.770286-29.476571-38.290286-47.835428-40.96l-4.717715-0.475428-2.340571-0.073143-65.28 12.763429-11.081143 2.267428v58.514286l1.316572 24.868571 0.768 11.629715 1.718857 21.686857 2.011428 19.602285 2.304 17.408z m916.004572-6.290285l1.024-7.460572 1.938285-17.700571 0.877715-9.581714 1.938285-26.112 1.572572-29.257143v-57.051429l-63.414857-15.213714-2.230857 0.109714c-19.748571 1.938286-37.010286 15.652571-51.931429 40.777143l-7.204571 12.690286c-8.411429 14.08-20.370286 29.586286-35.949715 46.628571 16.384 3.693714 32.658286 8.155429 48.676572 13.348572l15.981714 5.449142 88.722286 43.373715zM513.426286 813.129143l35.401143-1.536 59.611428-2.998857 31.378286-1.974857 19.236571-1.426286 15.579429-1.426286 11.885714-1.389714 12.251429-2.048c44.690286-8.155429 75.812571-22.747429 94.939428-52.736l2.011429-3.291429 5.705143-9.801143 7.387428-13.165714 47.396572-86.674286 17.298285-30.793142 8.374858-15.433143 11.044571-21.577143H987.428571a54.857143 54.857143 0 0 0-49.590857-54.601143l-5.266285-0.256h-10.313143l23.990857-40.301714c4.644571-8.484571 8.448-16.603429 11.666286-25.161143l-97.572572-47.908572c-46.555429-16.457143-97.828571-26.185143-149.942857-27.940571l-17.334857-0.292571H360.155429l-17.042286 0.256a505.819429 505.819429 0 0 0-117.504 17.92l-16.347429 4.827428-133.412571 54.930286-7.68 3.620571c1.609143 3.876571 3.364571 7.68 5.266286 11.556572l4.315428 8.228571 23.990857 40.265143H91.428571A54.857143 54.857143 0 0 0 36.571429 566.857143h94.427428l11.117714 21.650286 8.338286 15.36 9.837714 17.444571 54.784 99.913143 10.532572 18.651428 4.644571 7.68c19.090286 29.988571 50.212571 44.617143 94.939429 52.809143l12.288 2.011429 7.497143 0.914286 14.994285 1.462857 13.275429 1.097143 23.808 1.645714 50.102857 2.779428 63.341714 2.852572h2.925715z"  horiz-adv-x="1024" />
      
      <glyph glyph-name="icon_check_16" unicode="&#59129;" d="M953.6 655.552L365.184 67.2a21.056 21.056 0 0 0-29.696 0L64 338.752a64 64 0 0 0 90.496 0l195.84-195.84 512.704 512.64a64 64 0 0 0 90.496 0z"  horiz-adv-x="1024" />
      
      <glyph glyph-name="icon_close_16" unicode="&#59131;" d="M846.848 768.64a64 64 0 0 0 0-90.496L552.64 384l339.456-339.392a64 64 0 0 0-90.496 0L507.392 338.752l-294.144-294.144a64 64 0 0 0-84.48-5.312l-6.016 5.312L462.144 384 168 678.144a64 64 0 0 0-5.312 84.48l5.312 6.016 339.392-339.392 339.456 339.392z"  horiz-adv-x="1024" />
      
      <glyph glyph-name="icon_close_28" unicode="&#59133;" d="M845.531429 765.44a54.857143 54.857143 0 0 0 0-77.568L541.622857 384l342.674286-342.674286a54.857143 54.857143 0 0 0-77.568 0l-303.908572 303.872-303.835428-303.908571a54.857143 54.857143 0 0 0-73.398857-3.730286l-4.169143 3.766857L464.091429 384 160.182857 687.872a54.857143 54.857143 0 0 0-3.730286 73.398857l3.766858 4.169143 342.601142-342.674286 342.674286 342.674286z"  horiz-adv-x="1024" />
      
    </font>
</defs>
</svg>
